<?xml version="1.0" encoding="utf-8" ?>
<svg xmlns="http://www.w3.org/2000/svg" xmlns:xlink="http://www.w3.org/1999/xlink" width="2048" height="2048">
	<g>
		<path fill="#042035" d="M922.772 644.19C938.781 633.042 957.168 597.93 974.781 591.788C976.3 592.005 977.368 591.735 978.389 593.036C983.459 599.496 976.997 616.954 975.812 624.524C982.7 622.193 990.142 621.455 997.346 620.835C1002.53 630.413 1008.47 654.682 1020.1 658.317C1021.62 658.793 1023.24 658.775 1024.68 658.129C1035.56 653.273 1042.45 630.849 1046.8 620.262L1064.18 622.444C1064.16 622.122 1064.14 621.8 1064.12 621.479C1063.43 612.316 1059.03 604.011 1062.07 594.888C1063.19 593.806 1063.66 592.791 1065.32 592.705C1070.21 592.451 1075.12 597.761 1078.26 601.03C1089.91 613.124 1107.81 637.291 1119.77 646.112C1126.25 652.346 1129.16 659.846 1134.59 666.617C1138.49 676.375 1142.4 686.141 1145.69 696.12C1147.79 702.46 1149.21 709.981 1152.05 715.907C1191.47 735.492 1230.05 761.349 1257.09 796.638C1261.2 801.67 1270.11 815.957 1274.47 819.329C1281.62 831.216 1287.4 845.297 1295.35 856.404C1297.18 856.753 1298.69 856.905 1300.33 857.831C1298.16 859.497 1295.72 860.646 1293.29 861.892L1291.38 861.54L1291.74 863.041C1294.17 864.114 1292.75 863.924 1295.36 863.264C1298.39 862.5 1301.02 863.498 1303.9 864.407C1299.6 864.518 1294.83 864.23 1290.66 865.323C1315.81 867.347 1342.35 865.297 1367.69 865.259L1529.18 865.208C1554.78 865.211 1582.25 863.2 1607.6 866.624C1619.16 871.022 1629.35 878.11 1634.25 889.944C1635.42 892.777 1636.22 895.841 1636.71 898.861L1636.53 1023.97C1636.51 1046.09 1637.28 1068.4 1636.32 1090.48L1636.52 1091.4C1637.18 1094.56 1637.37 1097.37 1637.29 1100.59L1637.99 1101.29L1642.51 1094.2L1643.74 1095.77C1639.09 1109.78 1630.27 1121.08 1616.81 1127.65C1611.01 1130.48 1605.11 1131.72 1598.79 1132.67C1591.07 1135.48 1568.41 1133.88 1558.85 1133.95Q1498.44 1134.33 1438.02 1134.03C1410.49 1133.9 1380.38 1131.79 1353.26 1136.45C1349.37 1137.11 1347.79 1138.81 1344.87 1141.3C1340.05 1145.43 1331.57 1141.55 1325.69 1142.8C1317.44 1144.55 1305.9 1156.38 1305.09 1164.99C1303.86 1178.25 1324.86 1193.1 1318.67 1203.61L1313.5 1207.26C1299.84 1207.77 1280.58 1204.39 1270.33 1215.45C1266.16 1219.95 1264.59 1226 1265.02 1232.02C1265.71 1241.83 1273.78 1252.98 1271.37 1262.39C1269.23 1264.53 1267.49 1265.42 1264.4 1265.48C1245.76 1265.83 1243.3 1250.06 1218.39 1262.45C1216.54 1265.52 1214.28 1268.84 1213.35 1272.32C1211.19 1280.43 1214.54 1307.93 1212.8 1310.65C1212.55 1311.05 1210.13 1312.45 1209.51 1312.62C1195.65 1316.57 1180.78 1292.22 1161.59 1295.48C1158.21 1296.06 1155.91 1296.82 1153.91 1299.8C1146.06 1311.49 1149.35 1338.77 1139.12 1344.3C1134.85 1344.92 1132.15 1343.71 1128.74 1341.21C1119.61 1334.51 1116.39 1324.86 1104.35 1321.87L1103.77 1323.02L1103.89 1323.37L1104.13 1325.07Q1104.91 1352.81 1104.59 1380.55C1104.56 1391.63 1105.53 1403.94 1103.09 1414.8Q1102.8 1416.09 1102.43 1417.37Q1102.06 1418.64 1101.61 1419.88Q1101.15 1421.13 1100.62 1422.34Q1100.09 1423.56 1099.47 1424.73Q1098.86 1425.91 1098.17 1427.04Q1097.49 1428.17 1096.73 1429.26Q1095.96 1430.35 1095.14 1431.38Q1094.31 1432.41 1093.41 1433.39C1084.52 1442.99 1035.8 1464.68 1021.07 1469.53C1004 1461.69 969.227 1448.3 955.122 1437.67C949.361 1433.32 944.704 1427.69 942.044 1420.95C934.417 1401.62 940.861 1349.48 939.694 1326.05C930.554 1333.33 923.953 1345.54 917.596 1355.25C909.521 1352.73 901.389 1350.6 893.185 1348.55C893.117 1335.31 897.138 1314.11 887.707 1303.42C885.628 1301.07 882.818 1299.87 879.675 1299.87C866.109 1299.84 853.378 1316.8 844.306 1325.4C836.672 1320.54 828.631 1316.65 820.52 1312.67C823.619 1300.62 830.651 1280.87 824.62 1269.05C823.131 1266.13 820.8 1264.12 817.563 1263.38C805.422 1260.58 787.896 1274.25 777.966 1280.51C771.359 1275.5 765.583 1268.98 759.637 1263.19C763.474 1256.1 767.672 1249.12 771.306 1241.94C774.02 1236.57 777.066 1227.71 774.455 1221.78C773.09 1218.67 770.913 1216.63 767.737 1215.44C755.027 1210.65 738.32 1218.27 726.645 1223.31C722.003 1215.29 717.029 1207.49 712.047 1199.68C719.303 1190.95 733.982 1176.55 734.012 1164.65C734.019 1161.83 733.067 1159.17 731.028 1157.16C725.782 1152 718.178 1152.12 711.356 1152C712.004 1150.91 711.8 1151.59 711.442 1149.87C705.11 1146.91 698.347 1146.82 692.003 1144.06C690 1143.25 687.975 1142.65 685.912 1142.01C685.664 1142.16 685.432 1142.34 685.169 1142.47C683.598 1143.2 682.153 1142.94 680.479 1142.85L680.066 1143.91L681.162 1145.3C671.315 1148.19 594.278 1146.23 577.632 1146.23L496.267 1146.34C480.895 1146.37 465.271 1146.92 449.924 1146.1C432.306 1145.17 415.942 1138.26 404.107 1124.95C384.375 1102.76 387.852 1075.57 387.728 1048.03C387.659 1032.54 387.089 1016.84 387.951 1001.38Q387.688 996.212 387.663 991.037C387.554 966.45 384.78 907.726 390.552 886.921Q391.067 885.032 391.706 883.18Q392.344 881.329 393.102 879.523Q393.861 877.718 394.736 875.966Q395.611 874.214 396.6 872.523Q397.588 870.833 398.686 869.211Q399.783 867.589 400.984 866.042Q402.186 864.495 403.486 863.031Q404.786 861.567 406.18 860.191C413.633 852.799 423.711 846.644 434.05 844.504C452.758 840.633 494.723 843.042 515.135 843.079L682.277 843.089C684.004 840.152 686.05 837.441 688.048 834.686C701.346 833.647 717.583 838.349 729.732 830.944C732.044 829.535 733.094 828.106 733.49 825.377C734.961 815.26 717.213 797.524 711.225 789.954C716.321 782.777 720.681 775.34 726.309 768.505C734.26 770.32 741.669 773.789 749.519 775.93C757.062 777.987 761.776 778.361 768.586 774.405L770.006 773.042C771.264 770.981 772.377 768.914 773.066 766.583C776.665 754.404 764.895 737.582 759.283 727.205L778.14 709.301C791.441 716.478 802.741 726.105 818.618 724.998C820.393 723.159 822.223 721.288 823.483 719.044C829.962 707.505 822.347 688.455 818.984 676.621C826.401 671.655 834.448 667.412 842.176 662.936Q847.65 668.557 853.207 674.096C859.528 680.361 868.192 689.082 877.768 688.668C881.021 688.527 883.747 687.205 885.817 684.662C893.99 674.621 890.273 653.85 889.41 641.725C897.974 638.953 906.812 636.769 915.483 634.337C917.822 637.681 920.332 640.918 922.772 644.19ZM1006.14 1396.13C1006.58 1401.34 1006.57 1406.59 1006.68 1411.82C1011.79 1415.65 1017.01 1418.86 1022.57 1422.02C1027.82 1418.88 1032.86 1415.75 1037.73 1412.03C1038.17 1401.4 1041.04 1385.26 1033.39 1376.87C1027.57 1374.43 1021.72 1372.25 1015.51 1374.72C1012.82 1375.79 1010.6 1377.55 1008.38 1379.37C1007.26 1384.98 1006.56 1390.42 1006.14 1396.13Z"/>
		<path fill="#31424D" d="M448.96 1131.65C460.147 1133.4 507.525 1133.57 519.359 1132.06C572.855 1134.06 626.956 1132.18 680.521 1132.11Q704.773 1132.07 729.022 1132.39C736.614 1132.48 745.256 1133.38 752.751 1132.41C756.891 1140.25 761.433 1151.7 767.417 1158.06C799.86 1217.47 874.193 1269.95 938.348 1288.8C983.797 1302.15 1030.48 1303.76 1077.02 1295.79C1086.65 1294.14 1098.37 1292.45 1107.27 1288.38C1109.22 1284.53 1114.09 1283.9 1115.56 1280.13L1113.69 1277.6C1156.33 1262.1 1188.62 1242.33 1222.8 1212.31C1222.27 1217.74 1210.96 1227.12 1206.95 1231.26Q1217.25 1223.06 1226.9 1214.1Q1236.55 1205.15 1245.5 1195.49C1250.08 1190.48 1272.7 1160.18 1274.91 1158.89C1275.7 1158.43 1276.67 1158.39 1277.55 1158.14L1281.45 1152.91C1284.07 1145.87 1289.41 1138.8 1292.78 1131.83C1307.26 1134.39 1348.08 1132.08 1365.07 1132.06L1527.56 1132.29C1551.16 1132.43 1575.3 1130.94 1598.79 1132.67C1591.07 1135.48 1568.41 1133.88 1558.85 1133.95Q1498.44 1134.33 1438.02 1134.03C1410.49 1133.9 1380.38 1131.79 1353.26 1136.45C1349.37 1137.11 1347.79 1138.81 1344.87 1141.3C1340.05 1145.43 1331.57 1141.55 1325.69 1142.8C1317.44 1144.55 1305.9 1156.38 1305.09 1164.99C1303.86 1178.25 1324.86 1193.1 1318.67 1203.61L1313.5 1207.26C1299.84 1207.77 1280.58 1204.39 1270.33 1215.45C1266.16 1219.95 1264.59 1226 1265.02 1232.02C1265.71 1241.83 1273.78 1252.98 1271.37 1262.39C1269.23 1264.53 1267.49 1265.42 1264.4 1265.48C1245.76 1265.83 1243.3 1250.06 1218.39 1262.45C1216.54 1265.52 1214.28 1268.84 1213.35 1272.32C1211.19 1280.43 1214.54 1307.93 1212.8 1310.65C1212.55 1311.05 1210.13 1312.45 1209.51 1312.62C1195.65 1316.57 1180.78 1292.22 1161.59 1295.48C1158.21 1296.06 1155.91 1296.82 1153.91 1299.8C1146.06 1311.49 1149.35 1338.77 1139.12 1344.3C1134.85 1344.92 1132.15 1343.71 1128.74 1341.21C1119.61 1334.51 1116.39 1324.86 1104.35 1321.87L1103.77 1323.02L1103.89 1323.37L1104.13 1325.07Q1104.91 1352.81 1104.59 1380.55C1104.56 1391.63 1105.53 1403.94 1103.09 1414.8Q1102.8 1416.09 1102.43 1417.37Q1102.06 1418.64 1101.61 1419.88Q1101.15 1421.13 1100.62 1422.34Q1100.09 1423.56 1099.47 1424.73Q1098.86 1425.91 1098.17 1427.04Q1097.49 1428.17 1096.73 1429.26Q1095.96 1430.35 1095.14 1431.38Q1094.31 1432.41 1093.41 1433.39C1084.52 1442.99 1035.8 1464.68 1021.07 1469.53C1004 1461.69 969.227 1448.3 955.122 1437.67C949.361 1433.32 944.704 1427.69 942.044 1420.95C934.417 1401.62 940.861 1349.48 939.694 1326.05C930.554 1333.33 923.953 1345.54 917.596 1355.25C909.521 1352.73 901.389 1350.6 893.185 1348.55C893.117 1335.31 897.138 1314.11 887.707 1303.42C885.628 1301.07 882.818 1299.87 879.675 1299.87C866.109 1299.84 853.378 1316.8 844.306 1325.4C836.672 1320.54 828.631 1316.65 820.52 1312.67C823.619 1300.62 830.651 1280.87 824.62 1269.05C823.131 1266.13 820.8 1264.12 817.563 1263.38C805.422 1260.58 787.896 1274.25 777.966 1280.51C771.359 1275.5 765.583 1268.98 759.637 1263.19C763.474 1256.1 767.672 1249.12 771.306 1241.94C774.02 1236.57 777.066 1227.71 774.455 1221.78C773.09 1218.67 770.913 1216.63 767.737 1215.44C755.027 1210.65 738.32 1218.27 726.645 1223.31C722.003 1215.29 717.029 1207.49 712.047 1199.68C719.303 1190.95 733.982 1176.55 734.012 1164.65C734.019 1161.83 733.067 1159.17 731.028 1157.16C725.782 1152 718.178 1152.12 711.356 1152C712.004 1150.91 711.8 1151.59 711.442 1149.87C705.11 1146.91 698.347 1146.82 692.003 1144.06C690 1143.25 687.975 1142.65 685.912 1142.01C686.016 1141.53 686.07 1141.03 686.222 1140.55C687.375 1136.97 693.976 1140.19 697.304 1138.65C682.442 1131.36 525.513 1133.57 496.882 1133.54C481.826 1133.52 462.143 1135.46 447.749 1132.64L448.96 1131.65ZM1006.14 1396.13C1006.58 1401.34 1006.57 1406.59 1006.68 1411.82C1011.79 1415.65 1017.01 1418.86 1022.57 1422.02C1027.82 1418.88 1032.86 1415.75 1037.73 1412.03C1038.17 1401.4 1041.04 1385.26 1033.39 1376.87C1027.57 1374.43 1021.72 1372.25 1015.51 1374.72C1012.82 1375.79 1010.6 1377.55 1008.38 1379.37C1007.26 1384.98 1006.56 1390.42 1006.14 1396.13Z"/>
		<defs>
			<linearGradient id="gradient_0" gradientUnits="userSpaceOnUse" x1="1019.511" y1="1325.5986" x2="1026.0411" y2="1464.8104">
				<stop offset="0" stop-color="#F86804"/>
				<stop offset="1" stop-color="#FD9C06"/>
			</linearGradient>
		</defs>
		<path fill="url(#gradient_0)" d="M1085.24 1329.84C1092.21 1324.36 1095.34 1323.81 1103.89 1323.37L1104.13 1325.07Q1104.91 1352.81 1104.59 1380.55C1104.56 1391.63 1105.53 1403.94 1103.09 1414.8Q1102.8 1416.09 1102.43 1417.37Q1102.06 1418.64 1101.61 1419.88Q1101.15 1421.13 1100.62 1422.34Q1100.09 1423.56 1099.47 1424.73Q1098.86 1425.91 1098.17 1427.04Q1097.49 1428.17 1096.73 1429.26Q1095.96 1430.35 1095.14 1431.38Q1094.31 1432.41 1093.41 1433.39C1084.52 1442.99 1035.8 1464.68 1021.07 1469.53C1004 1461.69 969.227 1448.3 955.122 1437.67C949.361 1433.32 944.704 1427.69 942.044 1420.95C934.417 1401.62 940.861 1349.48 939.694 1326.05C941.226 1324.93 942.697 1324.39 944.473 1323.75C950.143 1323.82 953.724 1324.04 957.888 1328.16C964.466 1334.66 967.427 1349.17 968.392 1358.22C969.214 1361.34 969.978 1364.45 970.631 1367.61C978.035 1369.49 986.72 1369.24 993.656 1371.66L996.777 1368.77C1000.06 1370.12 1003.02 1371.22 1004.51 1374.7C1007.22 1381.07 1004.89 1389.23 1006.14 1396.13C1006.58 1401.34 1006.57 1406.59 1006.68 1411.82C1011.79 1415.65 1017.01 1418.86 1022.57 1422.02C1027.82 1418.88 1032.86 1415.75 1037.73 1412.03C1038.17 1401.4 1041.04 1385.26 1033.39 1376.87C1033.35 1375.83 1033.13 1373.94 1033.38 1372.86C1034.6 1367.56 1041.33 1368.95 1044.72 1365.96C1045.19 1365.55 1045.63 1365.11 1046.08 1364.69L1048.47 1368.73C1051.07 1370.54 1053.13 1370.45 1056.16 1370.48L1057.92 1370.48C1061.38 1370.5 1064.75 1370.62 1068.07 1369.44C1078.71 1365.68 1078.2 1352.44 1080.34 1343.26C1081.45 1338.45 1083.16 1334.28 1085.24 1329.84Z"/>
		<path fill="#F97C07" d="M968.392 1358.22C969.214 1361.34 969.978 1364.45 970.631 1367.61C978.035 1369.49 986.72 1369.24 993.656 1371.66C987.365 1373.88 977.925 1372.38 971.238 1372.41Q969.677 1374.29 968.011 1376.07L966.554 1375.61C967.238 1374.06 967.688 1372.8 967.922 1371.12L966.423 1370C964.517 1369.87 962.994 1369.87 961.199 1369.16L963.049 1366.54L960.974 1365.31C962.291 1361.55 963.506 1365.52 965.328 1364.04C965.597 1363.82 966.3 1360.04 968.392 1358.22Z"/>
		<path fill="#042035" d="M692.003 1144.06L694.07 1141.58C699.836 1141.37 705.395 1141.14 710.623 1143.73C718.306 1147.54 728.332 1139.42 736.661 1160.37C739.452 1167.4 738.339 1175.17 735.023 1181.8C732.311 1187.23 727.168 1196.37 722.901 1200.3L722.645 1202.3C725.574 1205.76 728.133 1207.86 732.814 1208.23C747.577 1209.38 762.638 1203.04 774.749 1215.77C779.043 1220.28 780.551 1226.01 780.222 1232.13C779.711 1241.64 770.877 1253.6 774.87 1262.43C776.612 1264.1 778.182 1265.64 780.749 1265.76C786.386 1266.02 803.465 1258.32 809.366 1256.08C817.633 1257.74 823.029 1260.95 829.841 1265.75C830.869 1270.38 832.059 1275.15 832.402 1279.88C832.969 1287.68 830.843 1299.35 833.715 1306.37C834.501 1308.29 836.891 1309.61 838.612 1310.65C840.017 1311.5 842.43 1312.71 844.096 1312.25C853.511 1309.62 866.009 1286.82 886.004 1296.44C892.42 1299.53 896.382 1305.49 898.54 1312.1C901.431 1320.94 899.293 1334.23 904.34 1341.41C907.186 1342.66 908.719 1342.87 911.637 1341.6C925.165 1335.67 931.717 1315.78 949.397 1322.01C949.699 1322.12 949.977 1322.28 950.267 1322.42C948.213 1323.28 946.696 1323.61 944.473 1323.75C942.697 1324.39 941.226 1324.93 939.694 1326.05C930.554 1333.33 923.953 1345.54 917.596 1355.25C909.521 1352.73 901.389 1350.6 893.185 1348.55C893.117 1335.31 897.138 1314.11 887.707 1303.42C885.628 1301.07 882.818 1299.87 879.675 1299.87C866.109 1299.84 853.378 1316.8 844.306 1325.4C836.672 1320.54 828.631 1316.65 820.52 1312.67C823.619 1300.62 830.651 1280.87 824.62 1269.05C823.131 1266.13 820.8 1264.12 817.563 1263.38C805.422 1260.58 787.896 1274.25 777.966 1280.51C771.359 1275.5 765.583 1268.98 759.637 1263.19C763.474 1256.1 767.672 1249.12 771.306 1241.94C774.02 1236.57 777.066 1227.71 774.455 1221.78C773.09 1218.67 770.913 1216.63 767.737 1215.44C755.027 1210.65 738.32 1218.27 726.645 1223.31C722.003 1215.29 717.029 1207.49 712.047 1199.68C719.303 1190.95 733.982 1176.55 734.012 1164.65C734.019 1161.83 733.067 1159.17 731.028 1157.16C725.782 1152 718.178 1152.12 711.356 1152C712.004 1150.91 711.8 1151.59 711.442 1149.87C705.11 1146.91 698.347 1146.82 692.003 1144.06Z"/>
		<path fill="#F97C07" d="M996.777 1368.77C1002.69 1358.34 1006.24 1337.33 1018.13 1332.31C1021.15 1331.03 1024.26 1331.28 1027.18 1332.65C1038.1 1337.82 1042.34 1354.24 1046.08 1364.69C1045.63 1365.11 1045.19 1365.55 1044.72 1365.96C1041.33 1368.95 1034.6 1367.56 1033.38 1372.86C1033.13 1373.94 1033.35 1375.83 1033.39 1376.87C1027.57 1374.43 1021.72 1372.25 1015.51 1374.72C1012.82 1375.79 1010.6 1377.55 1008.38 1379.37C1007.26 1384.98 1006.56 1390.42 1006.14 1396.13C1004.89 1389.23 1007.22 1381.07 1004.51 1374.7C1003.02 1371.22 1000.06 1370.12 996.777 1368.77Z"/>
		<path fill="#FDFDFC" d="M1206.95 1231.26Q1217.25 1223.06 1226.9 1214.1Q1236.55 1205.15 1245.5 1195.49C1250.08 1190.48 1272.7 1160.18 1274.91 1158.89C1275.7 1158.43 1276.67 1158.39 1277.55 1158.14C1259.58 1187.61 1238.97 1208.26 1214.23 1231.58C1206.12 1236.96 1198.83 1243.51 1190.78 1249C1169.76 1263.32 1131.64 1284.01 1107.27 1288.38C1109.22 1284.53 1114.09 1283.9 1115.56 1280.13L1113.69 1277.6C1156.33 1262.1 1188.62 1242.33 1222.8 1212.31C1222.27 1217.74 1210.96 1227.12 1206.95 1231.26Z"/>
		<defs>
			<linearGradient id="gradient_1" gradientUnits="userSpaceOnUse" x1="1026.0444" y1="596.22797" x2="1015.0482" y2="856.57843">
				<stop offset="0" stop-color="#FF9007"/>
				<stop offset="1" stop-color="#FDAE06"/>
			</linearGradient>
		</defs>
		<path fill="url(#gradient_1)" d="M922.772 644.19C938.781 633.042 957.168 597.93 974.781 591.788C976.3 592.005 977.368 591.735 978.389 593.036C983.459 599.496 976.997 616.954 975.812 624.524C982.7 622.193 990.142 621.455 997.346 620.835C1002.53 630.413 1008.47 654.682 1020.1 658.317C1021.62 658.793 1023.24 658.775 1024.68 658.129C1035.56 653.273 1042.45 630.849 1046.8 620.262L1064.18 622.444C1064.16 622.122 1064.14 621.8 1064.12 621.479C1063.43 612.316 1059.03 604.011 1062.07 594.888C1063.19 593.806 1063.66 592.791 1065.32 592.705C1070.21 592.451 1075.12 597.761 1078.26 601.03C1089.91 613.124 1107.81 637.291 1119.77 646.112C1126.25 652.346 1129.16 659.846 1134.59 666.617C1138.49 676.375 1142.4 686.141 1145.69 696.12C1147.79 702.46 1149.21 709.981 1152.05 715.907C1152.21 719.488 1152.03 722.55 1154.08 725.605L1154.44 730.446C1157.37 741.954 1156.46 754.399 1150.29 764.784C1147.79 769.005 1144.62 773.943 1141.03 777.298C1132.44 788.892 1121.72 798.481 1113.01 809.782C1108.59 813.902 1104.99 818.817 1101.57 823.771C1100.05 826.762 1098.39 829.745 1097.05 832.823L1095.29 838.812C1094.12 845.001 1094.02 851.146 1093.84 857.423L946.685 857.373C944.068 817.01 926.933 811.877 904.236 783.161C886.521 761.584 883.965 755.941 886.124 727.421L887.461 725.169L888.287 717.633C890.686 713.769 891.483 707.513 892.636 703.067C898.04 685.957 908.379 655.322 922.772 644.19Z"/>
		<path fill="#042035" d="M962.515 694.6C1002.35 687.74 1038.37 687.228 1078.28 693.849L1078.47 702.849C1080.58 712.581 1078.26 723.235 1072.99 731.632C1072.65 732.176 1072.29 732.71 1071.94 733.248C1063.73 747.154 1050.22 756.645 1034.68 760.586C1028.88 762.058 1023.34 762.314 1017.39 762.333C1014.36 762.132 1011.34 761.844 1008.35 761.25C995.939 758.781 981.778 751.86 974.544 741.2C971.943 738.48 969.824 735.724 967.935 732.457C963.141 724.163 959.716 713.248 962.258 703.671L961.901 699.837L962.515 694.6Z"/>
		<path fill="#CACAC9" d="M962.515 694.6C1002.35 687.74 1038.37 687.228 1078.28 693.849L1078.47 702.849C1039.52 696.238 1001.08 695.326 962.258 703.671L961.901 699.837L962.515 694.6Z"/>
		<path fill="#050D20" d="M962.258 703.671C1001.08 695.326 1039.52 696.238 1078.47 702.849C1080.58 712.581 1078.26 723.235 1072.99 731.632C1072.65 732.176 1072.29 732.71 1071.94 733.248C1071.86 732.969 1071.77 732.693 1071.7 732.409C1069.67 723.464 1077.6 721.024 1073.03 711.347C1072.3 709.806 1071.32 707.27 1070.08 706.105C1062.98 699.47 997.641 699.215 986.055 701.794C982.77 702.525 979.973 704.42 977.011 705.924C975.59 706.645 976.058 706.403 974.175 706.706L971.372 704.257C969.665 705.39 969.446 705.643 968.474 707.312C969.668 707.724 968.881 707.557 970.886 707.297C972.449 712.234 969.238 718.888 969.693 724.233C970.23 730.539 974.649 734.584 974.544 741.2C971.943 738.48 969.824 735.724 967.935 732.457C963.141 724.163 959.716 713.248 962.258 703.671Z"/>
		<path fill="#31424D" d="M1046.8 620.262L1064.18 622.444C1070.89 645.622 1072.62 670.367 1078.28 693.849C1038.37 687.228 1002.35 687.74 962.515 694.6C964.943 679.965 967.991 665.473 971.017 650.952C972.807 642.357 975.377 633.287 975.812 624.524C982.7 622.193 990.142 621.455 997.346 620.835C1002.53 630.413 1008.47 654.682 1020.1 658.317C1021.62 658.793 1023.24 658.775 1024.68 658.129C1035.56 653.273 1042.45 630.849 1046.8 620.262Z"/>
		<path fill="#FDAA05" d="M1017.39 762.333L1022.9 763.68C1007.91 766.666 1003.77 760.961 991.386 759.972L992.014 763.861L990.918 764.594C987.21 763.992 984.767 762.923 981.584 760.948L981.697 760.677C979.017 758.357 976.83 756.489 975.113 753.357L975.123 753.204L975.038 753.183C975.627 751.662 975.915 750.854 975.979 749.193C973.585 749.437 971.837 749.601 969.455 749.067L968.755 747.533L971.094 746.472L970.642 744.988L967.138 743.821C966.884 733.392 955.832 729.449 957.397 708.764C957.74 704.231 958.394 702.734 961.901 699.837L962.258 703.671C959.716 713.248 963.141 724.163 967.935 732.457C969.824 735.724 971.943 738.48 974.544 741.2C981.778 751.86 995.939 758.781 1008.35 761.25C1011.34 761.844 1014.36 762.132 1017.39 762.333Z"/>
		<path fill="#F97C07" d="M1154.44 730.446C1157.37 741.954 1156.46 754.399 1150.29 764.784C1147.79 769.005 1144.62 773.943 1141.03 777.298C1137.72 777.771 1135.62 778.397 1132.7 780.043C1131.43 780.757 1132.21 780.615 1130.5 780.186C1130.4 779.558 1130.18 778.935 1130.22 778.302C1130.37 776.314 1135.66 768.452 1136.79 766.226C1142.19 755.649 1146.04 744.376 1151.76 733.959C1152.81 734.023 1152.29 734.053 1153.32 733.871L1154.44 730.446Z"/>
		<path fill="#F97C07" d="M886.124 727.421L887.461 725.169C888.784 737.223 907.928 775.972 907.677 779.44C907.625 780.158 907.135 780.774 906.863 781.442L904.236 783.161C886.521 761.584 883.965 755.941 886.124 727.421Z"/>
		<path fill="#0A1627" d="M889.41 641.725C897.974 638.953 906.812 636.769 915.483 634.337C917.822 637.681 920.332 640.918 922.772 644.19C908.379 655.322 898.04 685.957 892.636 703.067C891.483 707.513 890.686 713.769 888.287 717.633L887.461 725.169L886.124 727.421C872.643 736.578 858.718 745.117 845.58 754.769C810.573 780.49 784.555 812.588 763.532 850.355C761.597 855.322 759.501 861 756.119 865.148C736.057 867.778 701.078 865.329 679.221 865.266L511.16 865.183C487.87 865.171 460.808 862.269 438.091 867.343C426.23 873.4 416.258 880.819 412.239 894.261C408.58 906.502 410.787 985.547 410.776 1003.3C410.758 1030.74 409.073 1063.72 410.788 1090.58L408.945 1091.73C409.106 1095.71 409.393 1098.07 411.387 1101.55L411.284 1103.14L410.317 1103.26L405.21 1094.9L403.537 1094.87C407.135 1108.22 414.744 1118.99 426.892 1125.86C433.602 1129.66 440.205 1131.42 447.749 1132.64C462.143 1135.46 481.826 1133.52 496.882 1133.54C525.513 1133.57 682.442 1131.36 697.304 1138.65C693.976 1140.19 687.375 1136.97 686.222 1140.55C686.07 1141.03 686.016 1141.53 685.912 1142.01C685.664 1142.16 685.432 1142.34 685.169 1142.47C683.598 1143.2 682.153 1142.94 680.479 1142.85L680.066 1143.91L681.162 1145.3C671.315 1148.19 594.278 1146.23 577.632 1146.23L496.267 1146.34C480.895 1146.37 465.271 1146.92 449.924 1146.1C432.306 1145.17 415.942 1138.26 404.107 1124.95C384.375 1102.76 387.852 1075.57 387.728 1048.03C387.659 1032.54 387.089 1016.84 387.951 1001.38Q387.688 996.212 387.663 991.037C387.554 966.45 384.78 907.726 390.552 886.921Q391.067 885.032 391.706 883.18Q392.344 881.329 393.102 879.523Q393.861 877.718 394.736 875.966Q395.611 874.214 396.6 872.523Q397.588 870.833 398.686 869.211Q399.783 867.589 400.984 866.042Q402.186 864.495 403.486 863.031Q404.786 861.567 406.18 860.191C413.633 852.799 423.711 846.644 434.05 844.504C452.758 840.633 494.723 843.042 515.135 843.079L682.277 843.089C684.004 840.152 686.05 837.441 688.048 834.686C701.346 833.647 717.583 838.349 729.732 830.944C732.044 829.535 733.094 828.106 733.49 825.377C734.961 815.26 717.213 797.524 711.225 789.954C716.321 782.777 720.681 775.34 726.309 768.505C734.26 770.32 741.669 773.789 749.519 775.93C757.062 777.987 761.776 778.361 768.586 774.405L770.006 773.042C771.264 770.981 772.377 768.914 773.066 766.583C776.665 754.404 764.895 737.582 759.283 727.205L778.14 709.301C791.441 716.478 802.741 726.105 818.618 724.998C820.393 723.159 822.223 721.288 823.483 719.044C829.962 707.505 822.347 688.455 818.984 676.621C826.401 671.655 834.448 667.412 842.176 662.936Q847.65 668.557 853.207 674.096C859.528 680.361 868.192 689.082 877.768 688.668C881.021 688.527 883.747 687.205 885.817 684.662C893.99 674.621 890.273 653.85 889.41 641.725Z"/>
		<path fill="#31424D" d="M889.41 641.725C897.974 638.953 906.812 636.769 915.483 634.337C917.822 637.681 920.332 640.918 922.772 644.19C908.379 655.322 898.04 685.957 892.636 703.067C891.483 707.513 890.686 713.769 888.287 717.633L887.461 725.169L886.124 727.421C872.643 736.578 858.718 745.117 845.58 754.769C810.573 780.49 784.555 812.588 763.532 850.355C763.673 846.67 763.661 843.113 763.371 839.436L761.041 837.829L759.773 837.985L758.215 837.608C755.786 839.639 754.649 842.381 753.482 845.247L753.131 846.126L753.26 845.383L751.543 844.973L750.334 842.909C750.928 839.955 752.583 838.288 754.467 836.055L755.328 835.049C752.933 837.073 749.78 840.537 747.052 841.891C743.988 843.412 746.265 841.661 743.821 843.647C743.439 843.958 743.073 844.289 742.699 844.61C740.442 844.949 739.976 844.726 737.91 843.962C735.946 840.427 736.866 836.626 737.236 832.679C735.483 836.286 731.206 839.89 727.417 841.321C725.582 842.014 722.855 843.191 721.073 842.318C721.823 841.779 723.567 840.274 724.531 839.918C727.013 839.004 729.007 837.927 731.338 836.594C733.808 831.585 735.394 826.721 736.93 821.376C733.315 808.352 727.178 804.818 723.765 794.93C722.782 792.085 722.503 789.057 724.119 786.348C729.008 778.152 748.072 781 756.115 780.445C760.288 780.157 764.147 779.17 768.154 778.05L768.586 774.405L770.006 773.042C771.264 770.981 772.377 768.914 773.066 766.583C776.665 754.404 764.895 737.582 759.283 727.205L778.14 709.301C791.441 716.478 802.741 726.105 818.618 724.998C820.393 723.159 822.223 721.288 823.483 719.044C829.962 707.505 822.347 688.455 818.984 676.621C826.401 671.655 834.448 667.412 842.176 662.936Q847.65 668.557 853.207 674.096C859.528 680.361 868.192 689.082 877.768 688.668C881.021 688.527 883.747 687.205 885.817 684.662C893.99 674.621 890.273 653.85 889.41 641.725Z"/>
		<path fill="#042035" d="M889.41 641.725C897.974 638.953 906.812 636.769 915.483 634.337C917.822 637.681 920.332 640.918 922.772 644.19C908.379 655.322 898.04 685.957 892.636 703.067C892.278 699.767 892.528 697.569 890.499 694.89C880.679 691.575 874.49 699.406 860.84 691.594C854.508 687.971 847.304 676.59 845.27 675.628C843.734 674.902 837.835 675.31 836.191 676.081C834.032 677.094 832.655 679.192 831.994 681.443C827.802 695.729 838.286 717.628 822.613 728.073C805.417 739.533 775.929 717.426 770.801 731.218C770.664 731.585 770.594 731.973 770.49 732.35L772.765 732.31C773.482 735.289 773.708 738.751 774.676 741.599C778.226 752.041 783.076 760.678 776.53 771.346C774.245 775.071 772.137 776.415 768.154 778.05L768.586 774.405L770.006 773.042C771.264 770.981 772.377 768.914 773.066 766.583C776.665 754.404 764.895 737.582 759.283 727.205L778.14 709.301C791.441 716.478 802.741 726.105 818.618 724.998C820.393 723.159 822.223 721.288 823.483 719.044C829.962 707.505 822.347 688.455 818.984 676.621C826.401 671.655 834.448 667.412 842.176 662.936Q847.65 668.557 853.207 674.096C859.528 680.361 868.192 689.082 877.768 688.668C881.021 688.527 883.747 687.205 885.817 684.662C893.99 674.621 890.273 653.85 889.41 641.725Z"/>
		<path fill="#050D20" d="M778.14 709.301C791.441 716.478 802.741 726.105 818.618 724.998C816.876 726.948 815.835 727.363 813.185 727.538C801.135 728.334 781.385 714.928 771.314 724.732C769.271 726.722 768.484 728.731 768.62 731.579C769.183 743.306 782.611 760.919 773.466 771.343C772.206 772.778 771.752 772.605 770.006 773.042C771.264 770.981 772.377 768.914 773.066 766.583C776.665 754.404 764.895 737.582 759.283 727.205L778.14 709.301Z"/>
		<path fill="#FDFDFC" d="M888.287 717.633L887.461 725.169L886.124 727.421C872.643 736.578 858.718 745.117 845.58 754.769C810.573 780.49 784.555 812.588 763.532 850.355C763.673 846.67 763.661 843.113 763.371 839.436L761.041 837.829C778.359 800.94 814.406 765.989 847.342 742.716C860.431 733.466 874.422 725.641 888.287 717.633Z"/>
		<path fill="#B4B7BD" d="M759.773 837.985L761.041 837.829L763.371 839.436C763.661 843.113 763.673 846.67 763.532 850.355C761.597 855.322 759.501 861 756.119 865.148C736.057 867.778 701.078 865.329 679.221 865.266L511.16 865.183C487.87 865.171 460.808 862.269 438.091 867.343L438.99 865.014L441.737 863.935C440.055 863.73 438.411 863.457 436.747 863.141L436.335 861.951L440.787 860.289C439.331 858.806 437.197 858.746 435.195 858.275C441.737 856.274 447.944 855.603 454.757 855.873C474.235 854.262 494.419 855.306 513.987 855.307L620.532 855.317L693.946 855.195C707.348 855.153 722.011 854.084 735.242 855.831C740.475 855.64 745.77 855.328 750.93 856.439C754.023 850.349 757.169 844.306 759.773 837.985Z"/>
		<path fill="#B8BCBE" d="M454.757 855.873C474.235 854.262 494.419 855.306 513.987 855.307L620.532 855.317L693.946 855.195C707.348 855.153 722.011 854.084 735.242 855.831C719.554 857.556 703.599 855.506 687.869 856.138C682.115 856.369 676.681 858.476 670.919 859.015C656.247 860.389 640.438 859.939 625.708 859.273L624.984 860.657C629.977 861.537 653.559 859.22 655.669 861.769C639.51 864.299 620.479 862.303 604.037 862.122C563.04 861.67 522.117 860.25 481.133 861.329C468.738 861.656 453.684 860.718 441.737 863.935C440.055 863.73 438.411 863.457 436.747 863.141L436.335 861.951L440.787 860.289C439.331 858.806 437.197 858.746 435.195 858.275C441.737 856.274 447.944 855.603 454.757 855.873Z"/>
		<path fill="#B8BCBE" d="M759.773 837.985L761.041 837.829L763.371 839.436C763.661 843.113 763.673 846.67 763.532 850.355C761.597 855.322 759.501 861 756.119 865.148C751.214 864.465 746.058 864.634 741.105 864.513C746.054 863.477 752.082 863.123 755.372 858.96L753.551 860.5C749.364 857.597 748.165 857.534 743.129 858.047L741.823 858.189C743.914 857.154 747.158 857.461 749.545 856.823L750.93 856.439C754.023 850.349 757.169 844.306 759.773 837.985Z"/>
		<path fill="#CACAC9" d="M403.537 1094.87C400.205 1086.4 401.165 928.292 402.004 908.13C402.265 901.855 402.477 894.632 404.789 888.732C410.444 874.296 421.381 864.658 435.195 858.275C437.197 858.746 439.331 858.806 440.787 860.289L436.335 861.951L436.747 863.141C438.411 863.457 440.055 863.73 441.737 863.935L438.99 865.014L438.091 867.343C426.23 873.4 416.258 880.819 412.239 894.261C408.58 906.502 410.787 985.547 410.776 1003.3C410.758 1030.74 409.073 1063.72 410.788 1090.58L408.945 1091.73C409.106 1095.71 409.393 1098.07 411.387 1101.55L411.284 1103.14L410.317 1103.26L405.21 1094.9L403.537 1094.87Z"/>
		<path fill="#CACAC9" d="M1636.32 1090.48L1636.52 1091.4C1637.18 1094.56 1637.37 1097.37 1637.29 1100.59L1637.99 1101.29L1642.51 1094.2L1643.74 1095.77C1639.09 1109.78 1630.27 1121.08 1616.81 1127.65C1611.01 1130.48 1605.11 1131.72 1598.79 1132.67C1575.3 1130.94 1551.16 1132.43 1527.56 1132.29L1365.07 1132.06C1348.08 1132.08 1307.26 1134.39 1292.78 1131.83C1289.41 1138.8 1284.07 1145.87 1281.45 1152.91L1277.55 1158.14C1276.67 1158.39 1275.7 1158.43 1274.91 1158.89C1272.7 1160.18 1250.08 1190.48 1245.5 1195.49Q1236.55 1205.15 1226.9 1214.1Q1217.25 1223.06 1206.95 1231.26C1210.96 1227.12 1222.27 1217.74 1222.8 1212.31C1227.47 1204.84 1241.46 1192.97 1247.79 1185.27C1263.61 1166.05 1275.39 1144.72 1287.36 1123.02C1356.07 1125.78 1425.55 1123.73 1494.35 1123.63L1561.07 1123.67C1574.14 1123.76 1588.04 1124.78 1601.01 1123.32C1609.55 1122.36 1615.78 1118.87 1622.72 1114.18C1629.44 1106.83 1633.49 1099.94 1636.32 1090.48Z"/>
		<path fill="#B4B7BD" d="M1636.32 1090.48L1636.52 1091.4C1637.18 1094.56 1637.37 1097.37 1637.29 1100.59L1637.99 1101.29L1642.51 1094.2L1643.74 1095.77C1639.09 1109.78 1630.27 1121.08 1616.81 1127.65C1611.01 1130.48 1605.11 1131.72 1598.79 1132.67C1575.3 1130.94 1551.16 1132.43 1527.56 1132.29L1365.07 1132.06C1348.08 1132.08 1307.26 1134.39 1292.78 1131.83C1294.72 1130.06 1295.71 1129.49 1298.36 1129.24C1318.12 1127.36 1338.97 1129.47 1358.87 1129.26C1380.94 1129.03 1403.04 1126.41 1425.02 1126.62C1464.73 1127.01 1504.27 1127.54 1544 1127.31C1562.56 1127.2 1581 1128.04 1599.52 1126.28C1605.58 1125.71 1611.89 1123.18 1617.68 1121.31C1620 1119 1622.05 1117.42 1622.72 1114.18C1629.44 1106.83 1633.49 1099.94 1636.32 1090.48Z"/>
		<path fill="#CACAC9" d="M767.455 1140.93C774.29 1151.2 779.871 1162.13 787.321 1172.02C831.701 1230.92 894.079 1272.08 966.727 1286.58C1016.43 1296.5 1065.53 1292.45 1113.69 1277.6L1115.56 1280.13C1114.09 1283.9 1109.22 1284.53 1107.27 1288.38C1098.37 1292.45 1086.65 1294.14 1077.02 1295.79C1030.48 1303.76 983.797 1302.15 938.348 1288.8C874.193 1269.95 799.86 1217.47 767.417 1158.06L768.952 1157.62C770.327 1158.25 771.201 1158.59 772.717 1158.84C773.436 1154.46 768.591 1146.68 766.785 1142.18L767.455 1140.93Z"/>
		<path fill="#B8BCBE" d="M403.537 1094.87L405.21 1094.9L410.317 1103.26L411.284 1103.14L411.387 1101.55C409.393 1098.07 409.106 1095.71 408.945 1091.73L410.788 1090.58C412.34 1095.64 414.223 1100.12 416.547 1104.85C424.598 1115 432.675 1121.17 445.839 1123.29L452.358 1124.06C509.74 1122.2 567.567 1123.67 624.995 1123.58L711.856 1123.59C727.318 1123.6 743.113 1122.98 758.537 1123.88C761.538 1129.46 764.981 1135.11 767.455 1140.93L766.785 1142.18C768.591 1146.68 773.436 1154.46 772.717 1158.84C771.201 1158.59 770.327 1158.25 768.952 1157.62L767.417 1158.06C761.433 1151.7 756.891 1140.25 752.751 1132.41C745.256 1133.38 736.614 1132.48 729.022 1132.39Q704.773 1132.07 680.521 1132.11C626.956 1132.18 572.855 1134.06 519.359 1132.06C507.525 1133.57 460.147 1133.4 448.96 1131.65L447.749 1132.64C440.205 1131.42 433.602 1129.66 426.892 1125.86C414.744 1118.99 407.135 1108.22 403.537 1094.87Z"/>
		<path fill="#B4B7BD" d="M403.537 1094.87L405.21 1094.9L410.317 1103.26L411.284 1103.14L411.387 1101.55C409.393 1098.07 409.106 1095.71 408.945 1091.73L410.788 1090.58C412.34 1095.64 414.223 1100.12 416.547 1104.85C416.731 1109.59 417.435 1111.88 421.149 1115.16C427.237 1120.54 437.766 1126.11 445.855 1127.37C461.608 1129.82 479.952 1127.8 495.932 1127.81L622.702 1126.61C632.397 1126.48 641.905 1128.64 651.534 1129.4C658.432 1129.94 665.591 1129.53 672.511 1129.51C696.174 1129.45 730.736 1126.6 752.751 1132.41C745.256 1133.38 736.614 1132.48 729.022 1132.39Q704.773 1132.07 680.521 1132.11C626.956 1132.18 572.855 1134.06 519.359 1132.06C507.525 1133.57 460.147 1133.4 448.96 1131.65L447.749 1132.64C440.205 1131.42 433.602 1129.66 426.892 1125.86C414.744 1118.99 407.135 1108.22 403.537 1094.87Z"/>
		<path fill="#B8BCBE" d="M448.96 1131.65L449.04 1130.16C468.265 1128.4 491.585 1130.16 511.178 1130.22C517.437 1130.24 524.855 1131.02 530.969 1129.77L532.107 1130.59C527.69 1130.68 523.58 1130.57 519.359 1132.06C507.525 1133.57 460.147 1133.4 448.96 1131.65Z"/>
		<path fill="#CACAC9" d="M445.839 1123.29L452.358 1124.06C457.366 1126.04 568.508 1124.78 584.63 1125.3L584.912 1125.84L585.812 1125.78C565.4 1126.04 453.385 1130.59 443.595 1125.29L443.563 1123.87L445.839 1123.29Z"/>
		<path fill="#CACAC9" d="M1152.05 715.907C1191.47 735.492 1230.05 761.349 1257.09 796.638C1261.2 801.67 1270.11 815.957 1274.47 819.329C1281.62 831.216 1287.4 845.297 1295.35 856.404C1297.18 856.753 1298.69 856.905 1300.33 857.831C1298.16 859.497 1295.72 860.646 1293.29 861.892L1291.38 861.54L1291.74 863.041C1294.17 864.114 1292.75 863.924 1295.36 863.264C1298.39 862.5 1301.02 863.498 1303.9 864.407C1299.6 864.518 1294.83 864.23 1290.66 865.323C1287.85 864.356 1283.15 851.719 1281.56 848.782C1270.47 828.345 1256.93 810.209 1242.31 792.188C1211.03 761.157 1192.09 747.273 1154.08 725.605C1152.03 722.55 1152.21 719.488 1152.05 715.907Z"/>
		<path fill="#050D20" d="M1113.01 809.782C1115.07 809.252 1118.67 807.686 1120.58 808.493C1118.25 815.052 1114.83 827.573 1108.66 831.247C1107.36 832.02 1106.76 831.602 1105.38 831.365C1103.22 828.989 1102.29 826.886 1101.57 823.771C1104.99 818.817 1108.59 813.902 1113.01 809.782Z"/>
		<path fill="#050D20" d="M1097.05 832.823C1097.51 832.759 1097.96 832.708 1098.41 832.633C1099.99 832.367 1101.09 831.953 1102.52 831.29C1105.07 835.344 1104.14 841.322 1103.05 845.827C1102.37 848.626 1101.64 851.656 1099.49 853.681C1096.26 849.165 1099.52 843.892 1095.29 838.812L1097.05 832.823Z"/>
		<path fill="#0A1627" d="M1135.99 926.51Q1139.43 926.554 1142.87 926.529C1146.84 926.494 1166.29 925.919 1168.3 923.887C1166.26 922.853 1164.3 921.845 1162.38 920.601C1171 919.914 1179.23 921.42 1187.65 923.08L1187.25 923.097L1188.5 923.57C1187.09 923.727 1186.06 924.349 1184.79 924.951C1194.64 930.652 1202.96 926.955 1210.72 937.865C1215.99 945.284 1226.65 956.467 1227.86 965.481L1226.73 967.14L1227.37 968.213L1230.25 968.696C1236.23 962.723 1237.99 957.899 1240.93 950.39C1245.06 939.866 1256.71 932.078 1266.67 927.507C1285.57 918.83 1307.8 917.331 1327.31 925.206C1343.52 931.75 1351.59 948.59 1358.28 963.51L1356.76 964.021C1356.74 964.587 1356.64 965.155 1356.69 965.719C1356.87 967.784 1359.68 977.324 1361.1 978.268C1361.03 973.254 1360.41 967.282 1361.52 962.424L1361.91 962.608C1365.4 970.94 1364.04 1026.34 1361.14 1034.9C1355.81 1050.58 1339.75 1067.11 1324.82 1073.93Q1323.27 1074.62 1321.69 1075.23Q1320.11 1075.85 1318.51 1076.39Q1316.9 1076.93 1315.27 1077.39Q1313.64 1077.85 1311.99 1078.24Q1310.34 1078.62 1308.67 1078.93Q1307 1079.24 1305.32 1079.46Q1303.64 1079.69 1301.96 1079.84Q1300.27 1079.98 1298.57 1080.05Q1296.88 1080.11 1295.18 1080.1Q1293.49 1080.08 1291.8 1079.99Q1290.11 1079.89 1288.42 1079.72Q1286.73 1079.54 1285.06 1079.29Q1283.38 1079.03 1281.72 1078.7Q1280.06 1078.36 1278.42 1077.95Q1276.77 1077.54 1275.15 1077.05Q1273.53 1076.56 1271.93 1075.99L1273.45 1076.2C1259.83 1070.86 1248.65 1064.9 1239.73 1052.91C1234.7 1046.14 1229.12 1035.83 1230.75 1027.13C1230.86 1026.55 1230.99 1025.97 1231.11 1025.39L1223.93 1025.63L1223.73 1026.42L1225.61 1027.1C1226.03 1028.07 1226.56 1029.27 1226.57 1030.34C1226.67 1037.12 1215.52 1051.19 1211.26 1056.81C1202.68 1068.17 1187.51 1075.13 1173.65 1077.14C1153.25 1080.08 1137.53 1077.97 1120.86 1065.45C1100.15 1049.9 1094.04 1027.98 1094.04 1003.04C1094.05 993.951 1094.34 985.022 1096.68 976.189C1098.66 968.723 1105.38 959.865 1104.3 952.516C1104.08 951.013 1104.22 949.96 1104.56 948.488C1107.14 947.548 1108.25 950.745 1111.85 950.644C1117.06 940.682 1126.86 932.725 1135.99 926.51Z"/>
		<path fill="#FDFDFC" d="M1202.57 1058.39C1187.64 1069.5 1171.92 1075.77 1153.03 1073.81Q1151.62 1073.68 1150.21 1073.47Q1148.81 1073.26 1147.42 1072.99Q1146.03 1072.71 1144.65 1072.36Q1143.28 1072.02 1141.92 1071.6Q1140.56 1071.19 1139.23 1070.7Q1137.89 1070.22 1136.59 1069.67Q1135.28 1069.12 1134 1068.51Q1132.72 1067.89 1131.48 1067.22Q1130.23 1066.54 1129.02 1065.8Q1127.81 1065.06 1126.64 1064.26Q1125.47 1063.46 1124.34 1062.6Q1123.21 1061.74 1122.12 1060.82Q1121.04 1059.91 1120 1058.94Q1118.96 1057.97 1117.98 1056.96Q1116.99 1055.94 1116.05 1054.87Q1115.12 1053.8 1114.24 1052.69C1100.07 1034.48 1097.43 1006.77 1100.61 984.639C1103.17 966.858 1111 950.511 1125.64 939.614C1140.41 928.624 1160.26 925.909 1178.15 928.558C1197.33 931.399 1204.56 941.062 1215.35 955.386C1226.01 979.806 1227.93 1008.55 1218.04 1033.68C1214.35 1043.07 1209.13 1050.8 1202.57 1058.39Z"/>
		<path fill="#042035" d="M1156.66 961.293C1162.17 960.864 1167.18 961.064 1172.01 964.087C1179.22 968.597 1183.07 976.596 1184.86 984.643C1188.04 998.964 1188.6 1021.93 1180.23 1034.48C1176.74 1039.71 1172.8 1041.28 1166.86 1042.59C1162.66 1042.45 1158.36 1042.47 1154.41 1040.88C1148.15 1038.38 1143.56 1032.61 1141.11 1026.48C1135.66 1012.83 1135.73 988.011 1141.94 974.682C1145.23 967.618 1149.48 964.047 1156.66 961.293Z"/>
		<path fill="#FDFDFC" d="M1238.36 967.058C1245.99 950.946 1255.94 937.985 1273.38 931.75C1289.27 926.069 1311.24 925.414 1326.56 933.039C1340.42 939.935 1349.07 952.92 1353.63 967.319C1360.87 990.245 1359.53 1020.59 1348.27 1042.06C1340.89 1056.14 1328.91 1066.66 1313.61 1071.31C1295.52 1076.81 1278.66 1073.28 1261.87 1065.55C1254.24 1059.13 1247.74 1052.83 1242.88 1044C1230.29 1021.07 1231.4 991.524 1238.36 967.058Z"/>
		<path fill="#0A1627" d="M1292.55 961.194C1296.69 961.051 1300.61 961.434 1304.42 963.207C1310.87 966.205 1315.31 972.605 1317.64 979.137C1322.73 993.386 1322.96 1017.46 1315.97 1031.02C1312.37 1037.99 1308.55 1039.91 1301.22 1042.17C1296.16 1042.2 1291.7 1042.27 1287.11 1039.89C1280.68 1036.55 1276.42 1030.2 1274.3 1023.42C1269.97 1009.62 1269.84 986.288 1276.72 973.393C1280.5 966.297 1284.98 963.376 1292.55 961.194Z"/>
		<path fill="#042035" d="M1289.35 969.129C1291.23 968.882 1293.14 968.63 1295.04 968.602C1302.32 968.493 1306.23 972.837 1310.97 977.607C1313.91 991.921 1316.82 1014.07 1310.44 1027.73C1308.4 1032.11 1305.8 1034.53 1301.3 1036.11C1299.04 1036.02 1296.72 1035.97 1294.49 1035.61C1289.96 1034.89 1285.67 1031.74 1283.05 1028.07C1274.53 1016.18 1278.08 991.625 1280.68 978.052C1283.35 974.524 1285.48 971.458 1289.35 969.129Z"/>
		<path d="M1215.35 955.386C1218.1 956.46 1219.19 957.684 1220.57 960.338C1222.75 964.544 1222.71 968.489 1226.44 971.89C1228.71 972.723 1229.83 973.5 1232.16 972.256C1232.59 972.03 1232.92 971.666 1233.3 971.37L1233.02 972.195C1234.63 970.546 1235.67 968.833 1236.87 966.885L1238.36 967.058C1231.4 991.524 1230.29 1021.07 1242.88 1044C1247.74 1052.83 1254.24 1059.13 1261.87 1065.55C1260.22 1065.7 1259.22 1065.56 1257.73 1064.77C1246.76 1058.93 1236.57 1041.45 1232.78 1029.82C1232.03 1027.49 1232.45 1028.52 1231.56 1026.41C1231.42 1026.07 1231.26 1025.73 1231.11 1025.39L1223.93 1025.63L1223.73 1026.42L1225.61 1027.1C1219.96 1030.76 1216.68 1049.11 1203.58 1059.22L1202.57 1058.39C1209.13 1050.8 1214.35 1043.07 1218.04 1033.68C1227.93 1008.55 1226.01 979.806 1215.35 955.386Z"/>
		<path fill="#FDFDFC" d="M658.685 907.749L657.603 906.316C657.974 906.197 658.347 906.082 658.716 905.959C660.835 905.251 662.485 904.518 664.364 903.298C666.234 904.891 665.953 905.357 668.54 905.174C668.803 904.949 669.064 904.721 669.33 904.498C673.546 900.974 676.492 899.946 681.99 900.371C692.546 901.189 703.402 900.818 713.343 904.606L714.046 906.155L712.105 907.412L713.272 909.163L715.682 909.815C715.796 918.666 711.132 930.53 707.06 938.453C703.851 944.695 704.228 951.544 701.923 958.044C694.086 980.144 686.712 1002.02 679.787 1024.47C677.65 1031.39 674.513 1038.6 673.162 1045.68C671.568 1054.04 673.681 1064.19 671.183 1072.12C670.302 1074.92 667.711 1077.8 664.997 1078.85C657.581 1081.71 630.458 1081.31 623.661 1077.6C616.052 1073.46 612.102 1061.31 610.081 1053.41C609.037 1049.33 608.411 1047.75 606.548 1044.09C604.843 1040.74 606.002 1035.2 606.404 1031.58L604.397 1031.72C597.313 1039.99 597.358 1068.43 591.11 1075.42C588.169 1078.71 580.214 1079.49 576.118 1079.78C566.644 1080.45 553.35 1080.98 544.64 1077.19C543.531 1075.57 543.185 1074.58 542.923 1072.63C544.054 1069.25 544.869 1066.17 544.593 1062.57C543.477 1048 537.38 1032.29 533.234 1018.26C525.348 991.589 518.015 964.364 507.3 938.67C491.084 940.214 474.535 939.074 458.244 939.151C462.888 928.74 468.965 918.77 474.457 908.777C500.725 907.815 527.035 908.855 553.311 907.81C551.209 911.772 549.275 915.954 549.029 920.497C548.37 932.671 552.362 945.804 554.875 957.671C559.579 979.879 565.409 1002.35 568.224 1024.86Q578.65 987.427 588.272 949.78C584.165 937.759 583.544 921.8 575.277 911.712C573.602 909.668 574.195 910.863 573.485 908.64C579.67 907.519 629.737 907.375 633.569 909.039L635.146 909.728C635.7 914.461 634.98 918.42 633.241 922.847C628.309 935.399 632.519 969.486 637.813 982.107C638.833 984.539 640.222 986.106 642.211 987.826C640.683 988.558 639.347 989.046 637.694 989.42L637.326 990.521C638.65 991.46 639.025 992.001 640.679 992.157C644.343 989.544 644.138 982.619 645.37 978.448C646.693 973.969 648.741 969.709 650.104 965.224C653.572 953.812 655.812 942.252 657.784 930.509C658.769 924.646 658.915 921.632 657.05 916.007C656.22 913.503 655.858 911.731 656.407 909.087L658.685 907.749Z"/>
		<path fill="#0A1627" d="M713.272 909.163L715.682 909.815C715.796 918.666 711.132 930.53 707.06 938.453C703.851 944.695 704.228 951.544 701.923 958.044C694.086 980.144 686.712 1002.02 679.787 1024.47C677.65 1031.39 674.513 1038.6 673.162 1045.68C671.568 1054.04 673.681 1064.19 671.183 1072.12C670.302 1074.92 667.711 1077.8 664.997 1078.85C657.581 1081.71 630.458 1081.31 623.661 1077.6C616.052 1073.46 612.102 1061.31 610.081 1053.41C609.037 1049.33 608.411 1047.75 606.548 1044.09C604.843 1040.74 606.002 1035.2 606.404 1031.58L604.397 1031.72C597.313 1039.99 597.358 1068.43 591.11 1075.42C588.169 1078.71 580.214 1079.49 576.118 1079.78C566.644 1080.45 553.35 1080.98 544.64 1077.19C543.531 1075.57 543.185 1074.58 542.923 1072.63L588.575 1072.85C586.897 1064.33 587.7 1056.15 591.46 1048.25C596.324 1044.83 597.153 1036.79 600.674 1031.96C602.185 1029.89 603.138 1029.35 605.618 1029.12C609.442 1032.49 609.516 1038.73 612.771 1043.1L614.411 1043.08C618.72 1051.88 621.055 1063.13 621.229 1072.91L666.772 1072.76C665.262 1069.21 663.037 1064.98 663.041 1061.07C663.057 1045.3 696.418 943.522 704.415 924.312C706.717 918.781 709.17 913.612 713.272 909.163Z"/>
		<path d="M633.569 909.039L635.146 909.728C635.7 914.461 634.98 918.42 633.241 922.847C628.309 935.399 632.519 969.486 637.813 982.107C638.833 984.539 640.222 986.106 642.211 987.826C640.683 988.558 639.347 989.046 637.694 989.42L637.326 990.521C638.65 991.46 639.025 992.001 640.679 992.157C644.343 989.544 644.138 982.619 645.37 978.448C646.693 973.969 648.741 969.709 650.104 965.224C653.572 953.812 655.812 942.252 657.784 930.509C658.769 924.646 658.915 921.632 657.05 916.007C656.22 913.503 655.858 911.731 656.407 909.087C657.517 910.095 658.708 911.1 659.575 912.343C662.635 916.728 662.905 922.686 662.583 927.812C661.745 941.17 657.285 954.896 653.98 967.84L639.814 1023.1C637.141 1007.2 633.768 991.401 630.808 975.552C626.393 951.918 621.668 931.323 633.569 909.039Z"/>
		<path fill="#0A1627" d="M658.685 907.749L657.603 906.316C657.974 906.197 658.347 906.082 658.716 905.959C660.835 905.251 662.485 904.518 664.364 903.298C666.234 904.891 665.953 905.357 668.54 905.174C668.803 904.949 669.064 904.721 669.33 904.498C673.546 900.974 676.492 899.946 681.99 900.371C692.546 901.189 703.402 900.818 713.343 904.606L714.046 906.155L712.105 907.412C695.295 910.035 675.73 908.278 658.685 907.749Z"/>
		<path d="M603.905 999.601C606.634 1014.22 610.725 1028.67 614.411 1043.08L612.771 1043.1C609.516 1038.73 609.442 1032.49 605.618 1029.12C603.138 1029.35 602.185 1029.89 600.674 1031.96C597.153 1036.79 596.324 1044.83 591.46 1048.25C594.033 1032.13 600.172 1015.67 603.905 999.601Z"/>
		<path fill="#FDFDFC" d="M883.173 929.14C871.566 927.953 839.927 930.952 832.398 928.576C839.834 926.096 859.752 929.309 863.619 923.488C881.487 921.844 913.524 919.59 927.97 931.948C938.088 940.603 943.798 954.291 944.379 967.44C945.582 994.664 934.512 995.458 923.793 1014.39C925.807 1030.09 939.169 1045.55 951.406 1055.14C954.414 1057.49 959.356 1059.25 960.225 1063.11C956.432 1067.02 952.554 1068.73 948.064 1071.54L948.085 1073.24C938.691 1078.91 923.74 1080.12 913.037 1077.69C903.75 1075.58 897.841 1070.3 892.902 1062.36C889.626 1057.09 880.331 1037.38 879.741 1032.01L877.389 1031.15L877.215 1030.43L878.038 1029.46L876.874 1028.19C879.432 1027.78 881.014 1028.43 883.191 1029.73L883.796 1028.19L882.03 1029.08L880.965 1028.26L882.865 1025.79C881.525 1023.39 881.131 1021.57 878.064 1021.05C875.635 1020.64 873.678 1021.11 871.684 1022.44C871.06 1025.88 876.363 1030.9 877.193 1034.71C877.511 1036.17 877.108 1037.59 877.222 1039.04C877.274 1039.7 877.549 1040.41 877.763 1041.04L880.027 1039.07C879.685 1043.34 878.453 1047.85 878.529 1052.07C878.669 1059.87 884.09 1068.96 879.998 1076.21C871.234 1083.59 831.847 1079.67 819.472 1079.6C807.451 1079.53 795.684 1080.81 783.659 1079.89L785.498 1079.57L783.829 1079.62C779.968 1079.72 775.37 1080.01 772.277 1077.23C771.096 1076.16 771.191 1076.16 770.475 1075L771.038 1073.03C781.613 1072.1 818.128 1075.72 824.801 1071.18L826.071 1071.63C828.537 1067.84 830.39 1063.83 831.069 1059.35C833.077 1049.67 832.505 1039 832.115 1029.16C832.958 1011.82 832.95 993.795 832.032 976.459C832.462 958.424 832.745 946.163 822.951 930.203C842.859 930.133 863.339 930.926 883.173 929.14Z"/>
		<path fill="#0A1627" d="M869.718 1019.12L882.177 1019.63C887.979 1033.93 895.727 1065.31 910.273 1071.94C919.996 1076.37 933.443 1074.46 943.603 1072.39C945.085 1072.09 946.578 1071.83 948.064 1071.54L948.085 1073.24C938.691 1078.91 923.74 1080.12 913.037 1077.69C903.75 1075.58 897.841 1070.3 892.902 1062.36C889.626 1057.09 880.331 1037.38 879.741 1032.01L877.389 1031.15L877.215 1030.43L878.038 1029.46L876.874 1028.19C879.432 1027.78 881.014 1028.43 883.191 1029.73L883.796 1028.19L882.03 1029.08L880.965 1028.26L882.865 1025.79C881.525 1023.39 881.131 1021.57 878.064 1021.05C875.635 1020.64 873.678 1021.11 871.684 1022.44C871.06 1025.88 876.363 1030.9 877.193 1034.71C877.511 1036.17 877.108 1037.59 877.222 1039.04C877.274 1039.7 877.549 1040.41 877.763 1041.04L880.027 1039.07C879.685 1043.34 878.453 1047.85 878.529 1052.07C878.669 1059.87 884.09 1068.96 879.998 1076.21C871.234 1083.59 831.847 1079.67 819.472 1079.6C807.451 1079.53 795.684 1080.81 783.659 1079.89L785.498 1079.57L783.829 1079.62C779.968 1079.72 775.37 1080.01 772.277 1077.23C771.096 1076.16 771.191 1076.16 770.475 1075L771.038 1073.03C781.613 1072.1 818.128 1075.72 824.801 1071.18L826.071 1071.63C834.383 1074.87 867.83 1072.66 879.011 1073.1C866.701 1055.02 870.231 1039.54 869.718 1019.12Z"/>
		<path fill="#0A1627" d="M883.173 929.14C871.566 927.953 839.927 930.952 832.398 928.576C839.834 926.096 859.752 929.309 863.619 923.488C881.487 921.844 913.524 919.59 927.97 931.948C938.088 940.603 943.798 954.291 944.379 967.44C945.582 994.664 934.512 995.458 923.793 1014.39C925.807 1030.09 939.169 1045.55 951.406 1055.14C954.414 1057.49 959.356 1059.25 960.225 1063.11Q955.467 1061.85 950.766 1060.39C937.416 1056.13 929.535 1041.89 923.55 1030.15C923.833 1026.32 921.45 1022.98 920.093 1019.5C918.696 1015.91 919.72 1011.98 921.422 1008.68C922.274 1007.03 922.079 1007.18 921.874 1005.39C931.893 996.055 938.408 985.661 939.078 971.661C939.605 960.667 937.167 948.754 929.264 940.648C916.537 927.595 899.755 929.188 883.173 929.14Z"/>
		<path d="M921.874 1005.39C922.079 1007.18 922.274 1007.03 921.422 1008.68C919.72 1011.98 918.696 1015.91 920.093 1019.5C921.45 1022.98 923.833 1026.32 923.55 1030.15C919.264 1024.45 915.565 1018.19 911.377 1012.37C915.011 1010.32 918.43 1007.74 921.874 1005.39Z"/>
		<path d="M870.189 961.353C877.999 960.551 884.341 959.581 890.937 964.858Q891.302 965.152 891.65 965.464Q891.999 965.776 892.33 966.107Q892.662 966.437 892.975 966.784Q893.289 967.131 893.584 967.495Q893.879 967.858 894.154 968.237Q894.43 968.615 894.685 969.007Q894.94 969.4 895.174 969.805Q895.408 970.21 895.62 970.627Q895.832 971.044 896.022 971.472Q896.212 971.9 896.38 972.337Q896.547 972.774 896.691 973.219Q896.835 973.664 896.955 974.116Q897.075 974.569 897.172 975.027Q897.268 975.485 897.34 975.947Q897.412 976.41 897.46 976.875Q897.507 977.341 897.53 977.808C897.886 984.881 894.601 991.936 889.919 997.021C883.522 1000.79 877.365 1002.25 870.149 1003.37L870.189 961.353Z"/>
		<path fill="#050D20" d="M881.78 965.425C884.551 965.901 885.523 965.96 887.462 968.213C890.373 971.597 890.971 976.835 890.552 981.12C889.873 988.056 888.452 992.433 883.016 996.775L873.482 991.445C873.804 985.249 872.191 977.36 874.106 971.528C875.46 967.408 878.21 966.976 881.78 965.425Z"/>
		<path fill="#FDFDFC" d="M680.078 1072.62L679.81 1073.08L678.845 1072.91C679.284 1067.06 681.987 1060.58 684.221 1055.19C687.171 1048.07 690.507 1041.14 693.105 1033.88C702.709 1007.01 708.715 978.735 717.187 951.522L716.727 954.87C720.66 945.143 717.784 937.437 715.461 927.708C716.578 926.565 716.319 926.382 718.219 926.621C718.786 926.692 719.306 926.97 719.85 927.145L723.213 925.333C721.719 924.999 720.252 924.725 718.743 924.474C719.144 924.365 719.535 924.203 719.947 924.147C729.086 922.925 763.83 922.454 772.846 923.803C777.516 924.501 783.119 925.816 786.817 928.947C791.718 933.098 789.94 940.352 790.285 946.064C790.937 956.873 815.86 1051.39 820.723 1055.73C822.917 1054.75 822.026 1054.92 824.345 1054.77C824.874 1054.73 825.405 1054.73 825.935 1054.71L826.404 1053.83C823.923 1053.71 824.97 1054.05 823.184 1053.09C825.081 1050.36 826.236 966.556 825.707 956.352C825.235 947.227 820.864 938.338 822.133 929.04L822.951 930.203C832.745 946.163 832.462 958.424 832.032 976.459C832.95 993.795 832.958 1011.82 832.115 1029.16C832.505 1039 833.077 1049.67 831.069 1059.35C830.39 1063.83 828.537 1067.84 826.071 1071.63L824.801 1071.18C818.128 1075.72 781.613 1072.1 771.038 1073.03C775.577 1057.85 777.888 1059.7 772.456 1043.76C758.653 1042.9 744.7 1043.62 730.884 1043.93C729.868 1047.77 728.652 1051.74 728.045 1055.66C726.934 1062.84 730.186 1067.38 733.968 1073.02C718.909 1072.39 693.324 1075.19 680.078 1072.62Z"/>
		<path fill="#050D20" d="M680.078 1072.62L679.81 1073.08L678.845 1072.91C679.284 1067.06 681.987 1060.58 684.221 1055.19C687.171 1048.07 690.507 1041.14 693.105 1033.88C702.709 1007.01 708.715 978.735 717.187 951.522L716.727 954.87C720.66 945.143 717.784 937.437 715.461 927.708C716.578 926.565 716.319 926.382 718.219 926.621C718.786 926.692 719.306 926.97 719.85 927.145L723.213 925.333C721.719 924.999 720.252 924.725 718.743 924.474C719.144 924.365 719.535 924.203 719.947 924.147C729.086 922.925 763.83 922.454 772.846 923.803C777.516 924.501 783.119 925.816 786.817 928.947C791.718 933.098 789.94 940.352 790.285 946.064C790.937 956.873 815.86 1051.39 820.723 1055.73C822.917 1054.75 822.026 1054.92 824.345 1054.77C824.874 1054.73 825.405 1054.73 825.935 1054.71L826.404 1053.83C823.923 1053.71 824.97 1054.05 823.184 1053.09C825.081 1050.36 826.236 966.556 825.707 956.352C825.235 947.227 820.864 938.338 822.133 929.04L822.951 930.203C832.745 946.163 832.462 958.424 832.032 976.459C832.95 993.795 832.958 1011.82 832.115 1029.16C832.505 1039 833.077 1049.67 831.069 1059.35C830.39 1063.83 828.537 1067.84 826.071 1071.63L824.801 1071.18C820.595 1065.92 816.675 1060.95 813.75 1054.83C807.847 1042.5 804.678 1028.39 800.945 1015.25Q791.266 981.081 782.212 946.741Q784.54 938.298 787.013 929.897C780.36 928.503 771.464 929.666 764.58 929.709Q742.427 929.992 720.282 929.347C722.508 933.956 725.378 939.027 725.26 944.289C724.997 956.02 714.732 983.662 711.103 995.867C705.799 1013.71 701.163 1032.05 695.092 1049.63C691.881 1058.92 686.872 1065.61 680.078 1072.62Z"/>
		<path d="M782.212 946.741Q784.54 938.298 787.013 929.897L787.106 930.726C787.903 938.556 786.532 946.872 787.958 954.545C789.783 964.369 793.107 974.231 795.54 983.955C799.929 1001.49 806.615 1032.19 813.625 1048.24C815.068 1051.54 817.457 1055.72 820.5 1057.83C822.514 1059.23 823.04 1059.15 825.339 1058.93C828.121 1056.07 828.296 1051.65 829.452 1047.91L830.473 1048.48C830.604 1052.11 830.75 1055.73 831.069 1059.35C830.39 1063.83 828.537 1067.84 826.071 1071.63L824.801 1071.18C820.595 1065.92 816.675 1060.95 813.75 1054.83C807.847 1042.5 804.678 1028.39 800.945 1015.25Q791.266 981.081 782.212 946.741Z"/>
		<defs>
			<linearGradient id="gradient_2" gradientUnits="userSpaceOnUse" x1="742.7063" y1="989.34851" x2="760.34204" y2="997.02588">
				<stop offset="0" stop-color="#060309"/>
				<stop offset="1" stop-color="#01122E"/>
			</linearGradient>
		</defs>
		<path fill="url(#gradient_2)" d="M752.056 963.502C755.087 966.25 763.312 1008.99 765.921 1017.1L752.012 1017.38L738.851 1017.23C743.349 999.355 747.061 981.248 752.056 963.502Z"/>
		<path fill="#FDFDFC" d="M1492.58 924.624C1503.45 920.999 1542.71 918.502 1551.96 924.399C1557.57 927.977 1558.06 939.761 1559.62 945.801C1560.04 947.425 1560.35 948.627 1560.32 950.32C1560.21 956.915 1560.54 975.625 1555.74 980.271L1554.05 978.688L1552.06 977.982L1550.63 979.499C1548.37 978.529 1546.76 977.458 1544.77 976.017C1537.22 970.553 1523.68 965.063 1514.34 966.783C1513 967.031 1513.1 967.159 1511.6 967.955L1512.19 967.605C1512.96 971.25 1515.08 973.278 1518.19 975.388C1524.89 979.929 1534.31 983.737 1542.08 985.908C1548.21 987.621 1560.21 1001.76 1562.99 1007.26C1568.64 1018.48 1568.5 1032.62 1564.34 1044.3C1559.72 1057.27 1549.28 1069.36 1536.76 1075.15C1520.58 1082.63 1492.31 1083.91 1475.94 1077.18C1470.56 1074.97 1467.21 1072.89 1463.72 1068.29C1462.62 1066.83 1461.61 1064.98 1459.79 1064.68C1453.95 1072.4 1451.01 1077.58 1440.82 1078.96C1425.58 1081.01 1380.28 1082.4 1366.51 1077.77L1365.15 1075.95C1365.66 1074.68 1365.91 1073.97 1366.86 1072.95C1384.81 1071.37 1403.56 1072.65 1421.6 1073.07C1428.76 1073.24 1437.94 1074.41 1444.95 1072.93C1448.8 1072.11 1449.59 1069.32 1451.37 1066.12C1454.33 1054.65 1456.89 1042.15 1457.17 1030.3L1457.01 1029.05L1462.89 1025.16L1464.11 1025.49L1465.71 1024.6L1466.29 1025.12C1473.27 1020.57 1492.74 1035.25 1501.22 1036.73C1501.79 1036.83 1502.37 1036.9 1502.94 1036.99L1502.66 1037.09L1505.81 1036.47C1507.67 1034.55 1508.09 1034.21 1508.7 1031.64C1506.68 1029.26 1503.87 1028.89 1500.99 1027.82L1500.74 1026.2L1498.08 1026.46C1483.85 1013.62 1466.12 1012.58 1458.77 991.504C1455.31 981.594 1454.19 967.879 1459.11 958.275C1463.53 949.647 1467.87 940.692 1475.15 934.002C1483.45 926.377 1495.48 925.629 1506.1 925.88L1506.56 925.092L1507.43 925.3L1492.58 924.624Z"/>
		<path fill="#0A1627" d="M1469.02 1066.93C1469.24 1067.17 1469.43 1067.42 1469.66 1067.65C1476.38 1074.23 1499.17 1075.06 1508.48 1074.81C1523.59 1074.39 1538.71 1069.62 1549.19 1058.23C1557.62 1049.06 1562.01 1035.59 1561.26 1023.19C1559.04 986.76 1517.62 989.465 1502.51 974.088C1500.85 972.407 1499.76 970.5 1500.2 968.054C1500.56 966.013 1502.21 963.865 1503.77 962.566C1508.29 958.774 1516.44 958.555 1521.99 959.377C1533.65 961.106 1545.02 968.651 1552.06 977.982L1550.63 979.499C1548.37 978.529 1546.76 977.458 1544.77 976.017C1537.22 970.553 1523.68 965.063 1514.34 966.783C1513 967.031 1513.1 967.159 1511.6 967.955L1512.19 967.605C1512.96 971.25 1515.08 973.278 1518.19 975.388C1524.89 979.929 1534.31 983.737 1542.08 985.908C1548.21 987.621 1560.21 1001.76 1562.99 1007.26C1568.64 1018.48 1568.5 1032.62 1564.34 1044.3C1559.72 1057.27 1549.28 1069.36 1536.76 1075.15C1520.58 1082.63 1492.31 1083.91 1475.94 1077.18C1470.56 1074.97 1467.21 1072.89 1463.72 1068.29C1462.62 1066.83 1461.61 1064.98 1459.79 1064.68C1453.95 1072.4 1451.01 1077.58 1440.82 1078.96C1425.58 1081.01 1380.28 1082.4 1366.51 1077.77L1365.15 1075.95C1365.66 1074.68 1365.91 1073.97 1366.86 1072.95C1384.81 1071.37 1403.56 1072.65 1421.6 1073.07C1428.76 1073.24 1437.94 1074.41 1444.95 1072.93C1448.8 1072.11 1449.59 1069.32 1451.37 1066.12L1452.51 1067.3C1455.04 1065.06 1455.8 1062.09 1456.94 1059.01L1458.13 1059.27C1458.72 1060.25 1459.79 1062.8 1460.81 1063.09L1464.19 1060.76C1467.1 1062.35 1466.52 1067.28 1469.02 1066.93Z"/>
		<path fill="#0A1627" d="M1492.58 924.624C1503.45 920.999 1542.71 918.502 1551.96 924.399C1557.57 927.977 1558.06 939.761 1559.62 945.801C1560.04 947.425 1560.35 948.627 1560.32 950.32C1560.21 956.915 1560.54 975.625 1555.74 980.271L1554.05 978.688Q1553.31 956.662 1553.05 934.625C1533.69 926.819 1508.44 923.961 1488.83 932.626C1478.05 937.384 1469.94 945.496 1465.82 956.564C1461.63 967.821 1460.64 981.24 1466.1 992.222C1477.84 1015.79 1524.19 1020.43 1520.26 1034.66C1519.4 1037.77 1515.16 1041.14 1512.24 1042.17C1502.64 1045.57 1487.7 1040.57 1479.12 1035.78C1474.49 1033.2 1469.75 1029.14 1466.29 1025.12C1473.27 1020.57 1492.74 1035.25 1501.22 1036.73C1501.79 1036.83 1502.37 1036.9 1502.94 1036.99L1502.66 1037.09L1505.81 1036.47C1507.67 1034.55 1508.09 1034.21 1508.7 1031.64C1506.68 1029.26 1503.87 1028.89 1500.99 1027.82L1500.74 1026.2L1498.08 1026.46C1483.85 1013.62 1466.12 1012.58 1458.77 991.504C1455.31 981.594 1454.19 967.879 1459.11 958.275C1463.53 949.647 1467.87 940.692 1475.15 934.002C1483.45 926.377 1495.48 925.629 1506.1 925.88L1506.56 925.092L1507.43 925.3L1492.58 924.624Z"/>
		<path d="M1462.89 1025.16L1464.11 1025.49Q1467.32 1046.12 1469.02 1066.93C1466.52 1067.28 1467.1 1062.35 1464.19 1060.76L1460.81 1063.09C1459.79 1062.8 1458.72 1060.25 1458.13 1059.27L1456.94 1059.01C1455.8 1062.09 1455.04 1065.06 1452.51 1067.3L1451.37 1066.12C1454.33 1054.65 1456.89 1042.15 1457.17 1030.3L1457.01 1029.05L1462.89 1025.16Z"/>
		<path fill="#FDFDFC" d="M1000.86 902.721L995.015 901.479C1001.45 898.543 1101.9 898.409 1111.89 902.19C1113.27 902.715 1115.16 903.463 1115.75 904.89C1118.32 911.062 1117.4 931.311 1114.53 936.957C1114.25 937.512 1113.82 937.981 1113.47 938.493L1112 937.163C1111.69 936.855 1111.36 936.56 1111.06 936.237C1109.91 934.97 1109.65 934.232 1109.23 932.625L1108.47 932.233C1107.37 934.367 1107.43 935.079 1107.44 937.41C1106.07 939.51 1104.74 941.326 1103.05 943.197C1102.32 946.631 1103.74 949.104 1102.1 952.29C1098.36 953.009 1096.57 951.491 1093.02 950.534C1086.96 948.897 1077.21 950.192 1071.7 952.9C1068.06 957.949 1070.19 1033.53 1070 1045.11C1069.92 1050.04 1075.34 1070.91 1072.79 1073.45C1065.38 1080.84 1040.61 1080.9 1030.71 1080.15C1025.51 1079.76 1020.62 1079.06 1016.14 1076.2C1015.89 1075.19 1015.55 1074.17 1015.45 1073.14L1015.46 1071.64L1013.65 1072.03L1012.94 1070.05C1013.41 1067.74 1013.82 1065.42 1014.94 1063.32C1016.75 1059.94 1017.25 1058.13 1017.27 1054.26L1017.18 1054.85C1016.45 1032.76 1020.37 969.034 1015.29 952.072C1013.88 951.132 1012.52 950.146 1010.84 949.749C1005.19 948.412 994.939 951.666 990.152 954.849C989.6 955.217 989.07 955.616 988.526 955.996C988.01 956.355 987.487 956.704 986.972 957.066C986.619 957.315 986.273 957.576 985.924 957.83L983.174 957.013L981.544 960.735L980.4 961.096C978.29 957.185 978.517 951.151 978.132 946.732C977.821 949.177 977.744 951.681 977.575 954.141C973.147 947.411 973.98 931.819 974.68 923.759C975.22 917.542 976.87 911.172 981.966 907.134C986.688 903.393 995.053 902.17 1000.86 902.721Z"/>
		<path fill="#0A1627" d="M1111.24 907.698C1115.65 914.355 1112.08 927.973 1112.14 936.12C1112.14 936.471 1112.04 936.816 1112 937.163C1111.69 936.855 1111.36 936.56 1111.06 936.237C1109.91 934.97 1109.65 934.232 1109.23 932.625L1108.47 932.233C1107.37 934.367 1107.43 935.079 1107.44 937.41C1106.07 939.51 1104.74 941.326 1103.05 943.197C1102.32 946.631 1103.74 949.104 1102.1 952.29C1098.36 953.009 1096.57 951.491 1093.02 950.534C1086.96 948.897 1077.21 950.192 1071.7 952.9C1068.06 957.949 1070.19 1033.53 1070 1045.11C1069.92 1050.04 1075.34 1070.91 1072.79 1073.45C1065.38 1080.84 1040.61 1080.9 1030.71 1080.15C1025.51 1079.76 1020.62 1079.06 1016.14 1076.2C1015.89 1075.19 1015.55 1074.17 1015.45 1073.14C1024.56 1070.63 1060.66 1072.71 1072.28 1072.8C1069 1068.1 1065.19 1063.31 1063.8 1057.65C1061.48 1048.25 1061.47 955.901 1063.42 942.397C1072.53 941.682 1081.02 941.937 1090.02 943.571C1092.92 944.308 1095.76 945.363 1098.6 946.304C1107.88 934.986 1108.99 921.611 1111.24 907.698Z"/>
		<path d="M1063.42 942.397C1072.53 941.682 1081.02 941.937 1090.02 943.571L1090.03 944.413C1087.67 947.612 1075.41 944.639 1070.49 948.56C1068.11 950.456 1066.86 952.768 1066.28 955.706C1065.4 960.235 1065.93 965.319 1065.91 969.932C1065.83 984.275 1067.04 1000.18 1064.96 1014.28C1061.36 991.321 1066.8 966.584 1063.58 943.447C1063.53 943.097 1063.47 942.747 1063.42 942.397Z"/>
		<path fill="#0A1627" d="M1000.86 902.721L995.015 901.479C1001.45 898.543 1101.9 898.409 1111.89 902.19C1113.27 902.715 1115.16 903.463 1115.75 904.89C1118.32 911.062 1117.4 931.311 1114.53 936.957C1114.25 937.512 1113.82 937.981 1113.47 938.493L1112 937.163C1112.04 936.816 1112.14 936.471 1112.14 936.12C1112.08 927.973 1115.65 914.355 1111.24 907.698C1111.44 906.391 1111.27 905.097 1111.2 903.781C1095.92 915.16 996.945 903.205 984.805 909.934C980.726 912.195 978.969 919.337 978.423 923.533C977.443 931.056 978.028 939.139 978.132 946.732C977.821 949.177 977.744 951.681 977.575 954.141C973.147 947.411 973.98 931.819 974.68 923.759C975.22 917.542 976.87 911.172 981.966 907.134C986.688 903.393 995.053 902.17 1000.86 902.721Z"/>
		<path fill="#050D20" d="M1000.86 902.721L995.015 901.479C1001.45 898.543 1101.9 898.409 1111.89 902.19C1113.27 902.715 1115.16 903.463 1115.75 904.89C1118.32 911.062 1117.4 931.311 1114.53 936.957C1114.25 937.512 1113.82 937.981 1113.47 938.493L1112 937.163C1112.04 936.816 1112.14 936.471 1112.14 936.12C1112.08 927.973 1115.65 914.355 1111.24 907.698C1111.44 906.391 1111.27 905.097 1111.2 903.781C1103.41 899.934 1050.62 901.793 1039.01 902.336C1026.44 902.924 1013.28 905.327 1000.86 902.721Z"/>
		<path fill="#0A1627" d="M993.806 945.862C1000.77 940.849 1014.89 941.629 1023.16 941.953C1025.28 953.528 1025.35 1046.31 1022.97 1057.72C1022.01 1062.32 1018.87 1066.7 1016.26 1070.5L1015.46 1071.64L1013.65 1072.03L1012.94 1070.05C1013.41 1067.74 1013.82 1065.42 1014.94 1063.32C1016.75 1059.94 1017.25 1058.13 1017.27 1054.26L1017.18 1054.85C1016.45 1032.76 1020.37 969.034 1015.29 952.072C1013.88 951.132 1012.52 950.146 1010.84 949.749C1005.19 948.412 994.939 951.666 990.152 954.849C989.6 955.217 989.07 955.616 988.526 955.996C988.01 956.355 987.487 956.704 986.972 957.066C986.619 957.315 986.273 957.576 985.924 957.83L983.174 957.013C983.66 955.773 984.204 954.58 984.83 953.403C987.142 949.063 989.046 947.28 993.806 945.862Z"/>
		<path fill="#050D20" d="M993.806 945.862C1000.77 940.849 1014.89 941.629 1023.16 941.953L1023.03 943.228C1022.65 947.011 1022.66 950.093 1023.42 953.815L1022.27 956.443L1020.88 956.51L1020.53 955.209C1019.79 952.496 1019.49 950.158 1017.17 948.344C1012.54 946.679 1007.94 946.028 1003.01 946.409C1001.72 946.509 995.949 947.622 995.032 947.135C994.512 946.858 994.215 946.286 993.806 945.862Z"/>
		<path fill="#FDFDFC" d="M1365.15 1071.71L1364.24 1071.6L1363.34 1070.06C1365.21 1060.23 1363.77 1050.48 1364.75 1040.59C1366.14 1026.64 1370.98 1012.53 1371.34 998.48C1371.5 992.387 1369.46 986.212 1369.05 980.126C1368.6 973.549 1369.53 966.912 1367.76 960.472C1367.05 963.605 1366.04 971.822 1366.52 974.759C1367.2 978.882 1366.97 981.441 1365.51 985.383L1364.69 985.508C1365.01 971.041 1366.85 957.086 1361.98 943.27C1360.32 938.542 1359.52 935.493 1361.81 930.831C1370.58 922.678 1395.58 927.036 1407.45 926.382L1407.45 925.671C1402.32 923.653 1393.1 924.66 1387.49 924.519L1387.73 924.14L1398.97 922.856C1403.86 922.293 1408.34 923.822 1413.03 925.053L1410.12 924.601C1413.99 925.711 1418 926.705 1421.7 928.295C1425.6 929.966 1424.42 935.181 1423.47 938.585C1422.1 943.544 1419.9 948.808 1419.15 953.874C1417.53 964.903 1418.52 977.688 1418.43 988.852C1418.33 1000.1 1417.26 1012.31 1418.47 1023.48C1419 1028.38 1420.4 1032.67 1422.24 1037.2C1425.01 1038.96 1431.05 1038.14 1434.52 1038.13L1435.51 1037.24L1436.76 1037.18Q1431.03 1036.8 1425.3 1036.29C1427.67 1036.32 1429.8 1036.33 1432.08 1035.62C1448.2 1030.57 1447.31 1036.14 1459.39 1022.91L1461.32 1022.88L1462.89 1025.16L1457.01 1029.05L1457.17 1030.3C1456.89 1042.15 1454.33 1054.65 1451.37 1066.12C1449.59 1069.32 1448.8 1072.11 1444.95 1072.93C1437.94 1074.41 1428.76 1073.24 1421.6 1073.07C1403.56 1072.65 1384.81 1071.37 1366.86 1072.95L1365.15 1071.71Z"/>
		<path fill="#0A1627" d="M1365.15 1071.71L1364.24 1071.6L1363.34 1070.06C1365.21 1060.23 1363.77 1050.48 1364.75 1040.59C1366.14 1026.64 1370.98 1012.53 1371.34 998.48C1371.5 992.387 1369.46 986.212 1369.05 980.126C1368.6 973.549 1369.53 966.912 1367.76 960.472C1367.05 963.605 1366.04 971.822 1366.52 974.759C1367.2 978.882 1366.97 981.441 1365.51 985.383L1364.69 985.508C1365.01 971.041 1366.85 957.086 1361.98 943.27C1360.32 938.542 1359.52 935.493 1361.81 930.831C1370.58 922.678 1395.58 927.036 1407.45 926.382L1407.45 925.671C1402.32 923.653 1393.1 924.66 1387.49 924.519L1387.73 924.14L1398.97 922.856C1403.86 922.293 1408.34 923.822 1413.03 925.053L1410.12 924.601C1413.99 925.711 1418 926.705 1421.7 928.295C1425.6 929.966 1424.42 935.181 1423.47 938.585C1422.1 943.544 1419.9 948.808 1419.15 953.874C1417.53 964.903 1418.52 977.688 1418.43 988.852C1418.33 1000.1 1417.26 1012.31 1418.47 1023.48C1419 1028.38 1420.4 1032.67 1422.24 1037.2C1425.01 1038.96 1431.05 1038.14 1434.52 1038.13L1435.51 1037.24L1436.76 1037.18Q1431.03 1036.8 1425.3 1036.29C1427.67 1036.32 1429.8 1036.33 1432.08 1035.62C1448.2 1030.57 1447.31 1036.14 1459.39 1022.91L1461.32 1022.88L1462.89 1025.16L1457.01 1029.05L1457.17 1030.3L1451.18 1034.12C1439.23 1041.87 1426.34 1043.83 1412.36 1044C1410.02 1027 1409.42 968.377 1412.51 952.389C1414.11 944.095 1417.5 936.831 1421.71 929.561C1402.14 930.277 1382.35 930.187 1362.77 929.69C1366.1 936.228 1370.93 943.792 1372.35 950.981C1375.25 965.667 1374.96 1048.08 1370.45 1061.48C1369.26 1065.03 1367.22 1068.6 1365.15 1071.71Z"/>
		<path d="M1041.75 1134.24C1047.43 1131.97 1060.84 1135.94 1067.16 1136.87C1068.38 1141.37 1069.48 1146.07 1071.19 1150.41C1071.54 1151.32 1072.56 1153.32 1073.57 1153.61C1077.94 1154.84 1091.86 1147.23 1102.06 1152.11C1111.33 1156.56 1115.04 1164.95 1118.3 1174.06C1119.61 1177.72 1120.68 1179.73 1123.41 1182.62C1123.66 1182.89 1123.93 1183.16 1124.19 1183.43L1137.34 1184.37C1139.41 1187.29 1141.65 1190.26 1142.96 1193.62C1144.43 1197.36 1144.5 1201.92 1142.79 1205.6C1141.41 1208.57 1138.57 1210.83 1135.5 1211.86C1128.77 1214.13 1121.57 1212.08 1115.47 1209.07C1109.71 1205.86 1099.33 1211.76 1092.7 1211.96C1085.4 1212.19 1078.27 1208.82 1071 1208.18C1057.91 1207.04 1046.7 1214.11 1033.53 1208.45C1025.88 1205.16 1020.11 1199.39 1017.02 1191.64C1012.49 1180.29 1014.08 1165.83 1019.29 1154.96C1024.11 1144.94 1031.23 1137.84 1041.75 1134.24Z"/>
		<path fill="#FDFDFC" d="M1088.61 1154.18C1092.53 1153.98 1096.58 1154.02 1100.3 1155.45C1106.08 1157.68 1110.45 1162.64 1112.71 1168.31C1115.89 1176.27 1115.79 1186.2 1112.3 1194.03C1108.89 1201.71 1104.24 1205 1096.62 1208.04C1091.19 1208.16 1085.36 1208.17 1080.4 1205.64C1074.77 1202.77 1070.78 1197.84 1068.96 1191.81C1066.43 1183.42 1067.45 1172.96 1072.01 1165.43C1076.12 1158.65 1081.14 1156.09 1088.61 1154.18Z"/>
		<path d="M1087.55 1167.68C1089.55 1167.8 1091.89 1167.83 1093.63 1168.96C1096.66 1170.92 1097.96 1175.94 1098.14 1179.33C1098.45 1185.1 1097.09 1191.53 1093.34 1195.96C1092.66 1195.89 1091.98 1195.91 1091.32 1195.74C1088.47 1195 1086.46 1192.7 1085.45 1190.05C1082.82 1183.11 1084.8 1174.25 1087.55 1167.68Z"/>
		<path fill="#FDFDFC" d="M1065.27 1204.23C1054.58 1207.41 1044.22 1209.94 1033.8 1204.15C1026.56 1200.12 1022.02 1192.98 1020.05 1185.07C1017.34 1174.17 1018.69 1160.94 1024.79 1151.37C1029.06 1144.67 1035.56 1140 1043.36 1138.38C1050.23 1136.96 1057.26 1138.08 1064.01 1139.64Q1064.2 1150.25 1064.53 1160.86L1062.48 1160.45C1059.48 1157.33 1056.54 1153.75 1051.87 1153.49C1048.71 1153.31 1045.93 1154.95 1043.82 1157.16C1039.15 1162.07 1037.96 1169.87 1038.45 1176.38C1038.78 1180.78 1040.03 1185.48 1043.54 1188.44C1046.5 1190.94 1050.53 1191.79 1054.32 1191.36C1057.64 1190.99 1060.92 1189.78 1064.09 1188.75L1065.27 1204.23Z"/>
		<path fill="#050D20" d="M1044.2 1182.39C1043.57 1176.97 1041.78 1168.93 1044.28 1163.86C1045.51 1161.35 1046.83 1160.09 1049.51 1159.24C1052.27 1158.36 1057.01 1158.54 1059.47 1160.12C1059.92 1160.41 1060.36 1160.74 1060.8 1161.05L1062.48 1160.45L1064.53 1160.86C1064.4 1162.27 1064.65 1163.18 1064.86 1164.58C1065.57 1169.37 1065.38 1176.99 1062.27 1180.91C1059.95 1183.84 1054.72 1186.61 1050.92 1186.49C1047.64 1186.39 1046.36 1184.47 1044.2 1182.39Z"/>
		<path fill="#FDFDFC" d="M1126.31 1187.61Q1126.56 1187.53 1126.81 1187.47Q1127.06 1187.41 1127.32 1187.36Q1127.57 1187.3 1127.83 1187.27Q1128.09 1187.23 1128.35 1187.2Q1128.6 1187.18 1128.86 1187.16Q1129.12 1187.15 1129.38 1187.15Q1129.64 1187.15 1129.9 1187.16Q1130.16 1187.17 1130.42 1187.2Q1130.68 1187.22 1130.94 1187.26Q1131.2 1187.3 1131.45 1187.35Q1131.71 1187.4 1131.96 1187.46Q1132.21 1187.53 1132.46 1187.6Q1132.71 1187.68 1132.95 1187.77Q1133.2 1187.85 1133.44 1187.95Q1133.68 1188.05 1133.91 1188.16Q1134.15 1188.27 1134.38 1188.4Q1134.61 1188.52 1134.83 1188.65Q1135.05 1188.78 1135.27 1188.93Q1135.49 1189.07 1135.69 1189.23Q1135.9 1189.38 1136.1 1189.55Q1136.31 1189.71 1136.5 1189.89Q1136.69 1190.06 1136.87 1190.25Q1137.06 1190.43 1137.23 1190.62Q1137.41 1190.81 1137.57 1191.02Q1137.74 1191.22 1137.89 1191.43Q1138.05 1191.63 1138.19 1191.85Q1138.34 1192.07 1138.47 1192.29Q1138.6 1192.51 1138.73 1192.74Q1138.85 1192.97 1138.96 1193.21Q1139.07 1193.44 1139.17 1193.68Q1139.27 1193.92 1139.36 1194.17Q1139.44 1194.41 1139.52 1194.66Q1139.6 1194.91 1139.66 1195.16Q1139.72 1195.41 1139.77 1195.67Q1139.82 1195.92 1139.86 1196.18Q1139.9 1196.44 1139.93 1196.7Q1139.95 1196.96 1139.96 1197.21Q1139.98 1197.47 1139.98 1197.73Q1139.98 1197.99 1139.96 1198.25Q1139.95 1198.51 1139.92 1198.77Q1139.9 1199.03 1139.86 1199.29Q1139.82 1199.55 1139.77 1199.8Q1139.72 1200.06 1139.66 1200.31Q1139.59 1200.56 1139.52 1200.81Q1139.44 1201.06 1139.36 1201.3Q1139.27 1201.55 1139.17 1201.79Q1139.07 1202.03 1138.96 1202.26Q1138.85 1202.5 1138.72 1202.73Q1138.6 1202.96 1138.47 1203.18Q1138.33 1203.4 1138.19 1203.62Q1138.04 1203.83 1137.89 1204.04Q1137.73 1204.25 1137.57 1204.45Q1137.4 1204.65 1137.23 1204.84Q1137.05 1205.04 1136.87 1205.22Q1136.68 1205.4 1136.49 1205.58Q1136.3 1205.75 1136.1 1205.92Q1135.9 1206.08 1135.69 1206.24Q1135.48 1206.39 1135.26 1206.54Q1135.05 1206.68 1134.82 1206.81Q1134.6 1206.95 1134.37 1207.07Q1134.14 1207.19 1133.9 1207.3Q1133.67 1207.41 1133.43 1207.51Q1133.19 1207.61 1132.94 1207.7Q1132.7 1207.79 1132.45 1207.86Q1132.2 1207.93 1131.95 1208Q1131.7 1208.06 1131.44 1208.11Q1131.19 1208.16 1130.93 1208.2Q1130.68 1208.23 1130.42 1208.26Q1130.16 1208.28 1129.9 1208.3Q1129.64 1208.31 1129.38 1208.31Q1129.12 1208.31 1128.86 1208.3Q1128.61 1208.28 1128.35 1208.26Q1128.09 1208.23 1127.83 1208.19Q1127.58 1208.15 1127.32 1208.1Q1127.07 1208.05 1126.82 1207.99Q1126.57 1207.92 1126.32 1207.85Q1126.07 1207.77 1125.83 1207.69Q1125.58 1207.6 1125.34 1207.5Q1125.1 1207.4 1124.87 1207.29Q1124.63 1207.18 1124.41 1207.05Q1124.18 1206.93 1123.95 1206.8Q1123.73 1206.66 1123.52 1206.52Q1123.3 1206.38 1123.09 1206.22Q1122.88 1206.07 1122.68 1205.9Q1122.48 1205.74 1122.29 1205.56Q1122.1 1205.39 1121.92 1205.2Q1121.73 1205.02 1121.56 1204.83Q1121.39 1204.64 1121.22 1204.44Q1121.06 1204.24 1120.9 1204.03Q1120.75 1203.82 1120.6 1203.6Q1120.46 1203.39 1120.33 1203.16Q1120.19 1202.94 1120.07 1202.71Q1119.95 1202.48 1119.84 1202.25Q1119.73 1202.02 1119.63 1201.78Q1119.53 1201.54 1119.44 1201.29Q1119.36 1201.05 1119.28 1200.8Q1119.2 1200.55 1119.14 1200.3Q1119.08 1200.05 1119.03 1199.79Q1118.98 1199.54 1118.94 1199.28Q1118.9 1199.03 1118.88 1198.77Q1118.85 1198.51 1118.84 1198.25Q1118.82 1197.99 1118.82 1197.73Q1118.82 1197.47 1118.84 1197.21Q1118.85 1196.96 1118.87 1196.7Q1118.9 1196.44 1118.94 1196.18Q1118.97 1195.93 1119.02 1195.67Q1119.08 1195.42 1119.14 1195.17Q1119.2 1194.91 1119.28 1194.67Q1119.35 1194.42 1119.44 1194.17Q1119.53 1193.93 1119.62 1193.69Q1119.72 1193.45 1119.83 1193.21Q1119.94 1192.98 1120.07 1192.75Q1120.19 1192.52 1120.32 1192.3Q1120.45 1192.08 1120.6 1191.86Q1120.74 1191.64 1120.9 1191.44Q1121.05 1191.23 1121.22 1191.03Q1121.38 1190.83 1121.55 1190.63Q1121.73 1190.44 1121.91 1190.26Q1122.09 1190.07 1122.29 1189.9Q1122.48 1189.72 1122.68 1189.56Q1122.88 1189.4 1123.09 1189.24Q1123.29 1189.09 1123.51 1188.94Q1123.72 1188.8 1123.95 1188.66Q1124.17 1188.53 1124.4 1188.41Q1124.63 1188.28 1124.86 1188.17Q1125.09 1188.06 1125.33 1187.96Q1125.57 1187.86 1125.82 1187.77Q1126.06 1187.69 1126.31 1187.61Z"/>
		<path fill="#FDFDFC" d="M944.197 1142.15C944.949 1139.68 945.602 1138.38 947.875 1136.96C956.457 1131.61 966.131 1135.58 975.107 1136.52C981.736 1145.78 982.866 1155.28 981.511 1166.54C984.553 1166.48 988.071 1165.89 990.778 1167.48L982.697 1168.06C985.389 1168.29 988.905 1168.16 991.19 1169.71C992.302 1170.46 993.145 1172.66 993.307 1174.01C993.934 1179.21 986.96 1188.22 984.193 1192.67L992.444 1201.28C988.714 1205.54 984.613 1209.49 980.637 1213.51C977.975 1209.17 974.797 1205.17 971.723 1201.11C970.7 1201.9 969.7 1202.66 968.609 1203.35C961.304 1207.99 951.236 1209.97 942.79 1207.78C937.542 1206.41 932.885 1203.19 930.189 1198.43Q929.948 1198.01 929.729 1197.57Q929.51 1197.14 929.312 1196.69Q929.115 1196.25 928.94 1195.79Q928.765 1195.34 928.612 1194.88Q928.46 1194.41 928.331 1193.95Q928.201 1193.48 928.096 1193Q927.99 1192.53 927.908 1192.05Q927.826 1191.57 927.768 1191.08Q927.71 1190.6 927.675 1190.11Q927.641 1189.63 927.631 1189.14Q927.621 1188.65 927.636 1188.17Q927.65 1187.68 927.688 1187.2Q927.727 1186.71 927.789 1186.23Q927.851 1185.74 927.938 1185.27Q928.024 1184.79 928.134 1184.31Q928.244 1183.84 928.377 1183.37C930.901 1174.59 937.3 1170.73 944.703 1166.48C943.451 1164.18 942.016 1161.78 941.071 1159.34C938.748 1153.34 941.827 1147.59 944.197 1142.15Z"/>
		<path d="M944.197 1142.15C944.949 1139.68 945.602 1138.38 947.875 1136.96C956.457 1131.61 966.131 1135.58 975.107 1136.52C981.736 1145.78 982.866 1155.28 981.511 1166.54C984.553 1166.48 988.071 1165.89 990.778 1167.48L982.697 1168.06C979.986 1170.44 977.858 1176.47 976.229 1179.73C972.733 1175.59 969.689 1170.78 966.539 1166.35C970.179 1163.73 974.084 1161.16 976.514 1157.29C978.523 1154.09 979.807 1150.17 978.417 1146.47C977.046 1142.82 973.573 1140.43 970.054 1139.11C960.877 1135.65 952.613 1138.28 944.197 1142.15Z"/>
		<path d="M950.163 1174.5C953.759 1178.29 962.53 1187.69 963.234 1192.9L960.898 1194.87C957.907 1195.05 955.099 1195.25 952.297 1193.99C949.429 1192.71 947.048 1190.66 946.178 1187.52C944.739 1182.34 947.383 1178.52 950.163 1174.5Z"/>
		<path d="M957.397 1147.6C960.077 1147.92 961.6 1147.96 963.781 1149.7C965.062 1152.54 964.182 1154.93 963.525 1157.82C963.164 1157.88 962.807 1157.99 962.441 1158C959.627 1158.11 959.434 1157.63 957.594 1155.71C956.794 1152.58 956.883 1150.8 957.397 1147.6Z"/>
		<path fill="#0A1627" d="M1148.75 672.926C1148.65 671.633 1148.55 670.343 1148.52 669.045C1148.39 663.222 1150.65 653.119 1154.65 648.807C1153.99 658.615 1151.58 677.351 1159 685.14C1160.99 687.229 1163.2 688.405 1166.11 688.448C1178.55 688.633 1192.75 671.28 1201 663.076C1208.86 667.472 1217.35 671.212 1224.91 676.022C1221.6 687.632 1213.62 708.382 1220.4 719.428C1221.89 721.852 1224.14 723.424 1226.89 724.027C1238.85 726.648 1255 713.724 1264.71 707.611C1271.46 713.699 1278.02 719.85 1284.37 726.368C1278.08 736.578 1267.02 753.528 1270.48 766.006C1271.39 769.276 1273.46 771.906 1276.43 773.564C1282.74 777.097 1290.91 775.656 1297.43 773.546C1304.09 771.392 1310.61 768.522 1317.08 765.845C1323.24 773.038 1328.08 781.143 1333.17 789.097C1325.94 797.112 1310.89 810.523 1310.99 822.122C1311.01 824.84 1311.93 827.331 1313.92 829.221C1320.45 835.424 1332.67 834.398 1340.96 833.787Q1347.46 833.304 1353.93 832.601C1356.34 835.611 1358.78 838.595 1360.99 841.761C1383.73 843.428 1406.96 842.53 1429.77 842.516L1543.03 842.337C1564.01 842.236 1596.24 839.432 1615.69 844.393C1626.69 847.198 1637.46 854.796 1644.82 863.318C1651.52 871.082 1656.73 880.809 1658.66 890.922C1661.11 903.843 1659.91 918.232 1659.86 931.372L1659.65 994.084C1659.59 1023.87 1661.95 1057.84 1659.39 1086.9C1657.91 1103.7 1650.98 1119.32 1637.88 1130.27C1634.57 1133.04 1631.21 1135.53 1627.37 1137.55C1619.02 1142.43 1610.68 1144.52 1601.14 1145.56C1576.9 1148.22 1541.27 1146.34 1516.13 1146.32C1464.51 1146.28 1412.8 1146.73 1361.2 1145.98C1356.25 1151.11 1353.48 1153.62 1346.14 1153.55C1339.24 1153.48 1332.42 1151.81 1325.43 1151.74C1320.43 1152.38 1315.18 1153.3 1311.93 1157.62C1309.92 1160.28 1309.76 1163.6 1310.45 1166.75C1313.02 1178.46 1325.76 1190.02 1333.65 1198.76C1328.9 1206.66 1324.11 1214.87 1318.21 1221.99C1307.61 1218.04 1286.39 1208.97 1275.67 1214.81C1273.12 1216.19 1271.72 1218.08 1270.97 1220.85C1267.32 1234.47 1280.35 1250.68 1285.91 1262.36C1279.56 1268.25 1273.09 1274.06 1267 1280.22C1257.48 1274.41 1238.16 1260.05 1226.84 1263.56C1223.67 1264.54 1221.43 1266.46 1219.96 1269.4C1214.1 1281.16 1221.14 1300.98 1224.33 1313.09C1216.45 1317.12 1208.43 1321 1200.73 1325.36C1192.97 1317.39 1177.14 1298.46 1165.29 1299.23C1162.74 1299.39 1160.76 1300.83 1159.28 1302.83C1150.86 1314.15 1153.88 1334.54 1153.09 1348.08C1144.8 1350.51 1136.26 1352.66 1128.2 1355.78C1121.79 1346.07 1114.18 1330.87 1104.13 1325.07L1103.89 1323.37L1103.77 1323.02L1104.35 1321.87C1116.39 1324.86 1119.61 1334.51 1128.74 1341.21C1132.15 1343.71 1134.85 1344.92 1139.12 1344.3C1149.35 1338.77 1146.06 1311.49 1153.91 1299.8C1155.91 1296.82 1158.21 1296.06 1161.59 1295.48C1180.78 1292.22 1195.65 1316.57 1209.51 1312.62C1210.13 1312.45 1212.55 1311.05 1212.8 1310.65C1214.54 1307.93 1211.19 1280.43 1213.35 1272.32C1214.28 1268.84 1216.54 1265.52 1218.39 1262.45C1243.3 1250.06 1245.76 1265.83 1264.4 1265.48C1267.49 1265.42 1269.23 1264.53 1271.37 1262.39C1273.78 1252.98 1265.71 1241.83 1265.02 1232.02C1264.59 1226 1266.16 1219.95 1270.33 1215.45C1280.58 1204.39 1299.84 1207.77 1313.5 1207.26L1318.67 1203.61C1324.86 1193.1 1303.86 1178.25 1305.09 1164.99C1305.9 1156.38 1317.44 1144.55 1325.69 1142.8C1331.57 1141.55 1340.05 1145.43 1344.87 1141.3C1347.79 1138.81 1349.37 1137.11 1353.26 1136.45C1380.38 1131.79 1410.49 1133.9 1438.02 1134.03Q1498.44 1134.33 1558.85 1133.95C1568.41 1133.88 1591.07 1135.48 1598.79 1132.67C1605.11 1131.72 1611.01 1130.48 1616.81 1127.65C1630.27 1121.08 1639.09 1109.78 1643.74 1095.77L1642.51 1094.2L1637.99 1101.29L1637.29 1100.59C1637.37 1097.37 1637.18 1094.56 1636.52 1091.4L1636.32 1090.48C1637.28 1068.4 1636.51 1046.09 1636.53 1023.97L1636.71 898.861C1636.22 895.841 1635.42 892.777 1634.25 889.944C1629.35 878.11 1619.16 871.022 1607.6 866.624C1582.25 863.2 1554.78 865.211 1529.18 865.208L1367.69 865.259C1342.35 865.297 1315.81 867.347 1290.66 865.323C1294.83 864.23 1299.6 864.518 1303.9 864.407C1301.02 863.498 1298.39 862.5 1295.36 863.264C1292.75 863.924 1294.17 864.114 1291.74 863.041L1291.38 861.54L1293.29 861.892C1295.72 860.646 1298.16 859.497 1300.33 857.831C1298.69 856.905 1297.18 856.753 1295.35 856.404C1287.4 845.297 1281.62 831.216 1274.47 819.329C1270.11 815.957 1261.2 801.67 1257.09 796.638C1230.05 761.349 1191.47 735.492 1152.05 715.907C1149.21 709.981 1147.79 702.46 1145.69 696.12C1142.4 686.141 1138.49 676.375 1134.59 666.617C1134.82 666.842 1135.06 667.065 1135.3 667.292C1138.69 670.608 1141.19 676.553 1145.24 678.566C1147.49 677.522 1147.67 676.161 1148.45 673.95C1148.56 673.614 1148.65 673.267 1148.75 672.926Z"/>
		<path fill="#31424D" d="M1134.59 666.617C1134.82 666.842 1135.06 667.065 1135.3 667.292C1138.69 670.608 1141.19 676.553 1145.24 678.566C1147.49 677.522 1147.67 676.161 1148.45 673.95C1148.56 673.614 1148.65 673.267 1148.75 672.926C1150.01 678.92 1153.52 687.068 1159.04 690.428C1163.87 693.362 1169.61 693.587 1174.91 691.907C1186.07 688.375 1197.52 670.144 1209.56 675.447C1212.46 676.724 1214.42 679.168 1215.27 682.195C1219.05 695.694 1206.64 716.39 1222.46 725.752C1228.58 729.374 1235.25 728.999 1241.85 727.041C1249.18 724.862 1258.12 718.771 1265.78 722.725C1268.12 723.935 1270.15 725.938 1270.99 728.489C1275.97 743.583 1251.97 762.578 1274.62 776.427C1288.13 784.682 1316.51 774.235 1321.25 787.014C1322.34 789.941 1321.34 793.344 1319.87 795.96C1314.75 805.087 1303.49 813.938 1306.5 825.594C1308.25 832.372 1318.6 838.937 1324.77 841.595C1325.22 841.788 1325.71 841.849 1326.18 841.977C1321.5 842.87 1315.15 840.698 1310.97 838.626L1309.49 836.231C1309.65 839.338 1309.63 839.762 1311.43 842.264C1308.78 843.942 1307.08 845.077 1303.81 845.154C1295.93 842.484 1290.2 827.662 1286.92 826.961L1288.16 832.677C1287.19 831.301 1286.28 829.88 1285.34 828.481L1284.02 831.334C1282.2 828.529 1281.23 825.378 1279.49 822.554C1278.14 820.356 1276.86 819.866 1274.47 819.329C1270.11 815.957 1261.2 801.67 1257.09 796.638C1230.05 761.349 1191.47 735.492 1152.05 715.907C1149.21 709.981 1147.79 702.46 1145.69 696.12C1142.4 686.141 1138.49 676.375 1134.59 666.617Z"/>
		<path fill="#B4B7BD" d="M1595.2 854.805C1602.74 855.81 1613.23 856.358 1619.33 861.479C1619.92 863.398 1619.77 863.699 1621.3 865.057C1623.56 867.062 1624.99 869.64 1626.7 872.092L1625.45 873.36C1616.97 871.768 1620.19 863.031 1607.6 866.624C1582.25 863.2 1554.78 865.211 1529.18 865.208L1367.69 865.259C1342.35 865.297 1315.81 867.347 1290.66 865.323C1294.83 864.23 1299.6 864.518 1303.9 864.407C1301.02 863.498 1298.39 862.5 1295.36 863.264C1292.75 863.924 1294.17 864.114 1291.74 863.041L1291.38 861.54L1293.29 861.892C1295.72 860.646 1298.16 859.497 1300.33 857.831C1298.69 856.905 1297.18 856.753 1295.35 856.404C1320.16 853.612 1350.4 855.462 1375.7 855.4L1531.04 855.128C1551.97 855.127 1574.52 857.206 1595.2 854.805Z"/>
		<path fill="#CACAC9" d="M1636.71 898.861C1636.91 898.492 1637.14 898.139 1637.31 897.753C1638.75 894.379 1637.65 891.375 1639.45 887.77C1642.21 891.75 1642.27 898.65 1644.2 903.402C1645.41 901.681 1645.05 902.453 1645.53 901.215C1647.57 931.928 1645.99 963.685 1645.97 994.499C1645.96 1013.88 1648.18 1081.01 1643.74 1095.77L1642.51 1094.2L1637.99 1101.29L1637.29 1100.59C1637.37 1097.37 1637.18 1094.56 1636.52 1091.4L1636.32 1090.48C1637.28 1068.4 1636.51 1046.09 1636.53 1023.97L1636.71 898.861Z"/>
		<path fill="#050D20" d="M1423.32 1136.83C1431.25 1138.45 1440.33 1137.81 1448.45 1137.93Q1473.32 1138.42 1498.2 1138.56C1508.52 1138.55 1519.31 1137.51 1529.42 1138.73C1533.92 1139.27 1539.3 1138.58 1543.86 1138.49C1560.17 1138.16 1578.63 1136.15 1594.72 1138.78C1585.26 1138.96 1560.47 1137.84 1552.55 1141.14L1552.91 1142.43C1559.31 1144.81 1594.83 1144.48 1601.52 1142.24C1603.41 1141.6 1605.47 1138.78 1606.81 1137.31C1613.41 1137.87 1617.92 1138.77 1623.97 1135.57C1625.15 1136.2 1626.29 1136.78 1627.37 1137.55C1619.02 1142.43 1610.68 1144.52 1601.14 1145.56C1576.9 1148.22 1541.27 1146.34 1516.13 1146.32C1464.51 1146.28 1412.8 1146.73 1361.2 1145.98C1356.25 1151.11 1353.48 1153.62 1346.14 1153.55C1339.24 1153.48 1332.42 1151.81 1325.43 1151.74C1325.46 1151 1325.37 1151.47 1326.23 1150.55C1335.27 1149.74 1344.65 1147.8 1353.51 1145.84L1355.49 1146.53C1370.08 1139.14 1389.53 1141.68 1405.34 1140.13C1409.31 1139.74 1413.65 1137.93 1417.5 1138C1420.16 1138.05 1420.9 1138.24 1423.32 1136.83Z"/>
		<path fill="#042035" d="M1274.47 819.329C1276.86 819.866 1278.14 820.356 1279.49 822.554C1281.23 825.378 1282.2 828.529 1284.02 831.334L1285.34 828.481C1286.28 829.88 1287.19 831.301 1288.16 832.677C1289.17 835.259 1289.91 836.943 1291.78 839.064L1292.52 839.357L1293.21 840.321C1295.63 843.62 1298.33 847.544 1302.76 847.998C1307.26 848.458 1316.2 846.593 1319.73 848.699C1318.39 849.456 1317.18 850.297 1315.68 850.665L1316.59 849.581C1318.02 850.849 1318.48 851.391 1320.55 851.255C1322.78 851.11 1325.16 849.483 1327.08 848.417C1328.61 849.897 1331.49 853.285 1333.44 854.098C1335.31 854.874 1527.72 853.899 1549.34 853.891C1559.52 853.887 1587.02 851.675 1595.2 854.805C1574.52 857.206 1551.97 855.127 1531.04 855.128L1375.7 855.4C1350.4 855.462 1320.16 853.612 1295.35 856.404C1287.4 845.297 1281.62 831.216 1274.47 819.329Z"/>
		<path fill="#B8BCBE" d="M1619.33 861.479C1631.51 867.747 1639.62 877.777 1643.68 890.853C1644.76 894.302 1645.33 897.618 1645.53 901.215C1645.05 902.453 1645.41 901.681 1644.2 903.402C1642.27 898.65 1642.21 891.75 1639.45 887.77C1637.65 891.375 1638.75 894.379 1637.31 897.753C1637.14 898.139 1636.91 898.492 1636.71 898.861C1636.22 895.841 1635.42 892.777 1634.25 889.944C1629.35 878.11 1619.16 871.022 1607.6 866.624C1620.19 863.031 1616.97 871.768 1625.45 873.36L1626.7 872.092C1624.99 869.64 1623.56 867.062 1621.3 865.057C1619.77 863.699 1619.92 863.398 1619.33 861.479Z"/>
		<defs>
			<linearGradient id="gradient_3" gradientUnits="userSpaceOnUse" x1="1146.2793" y1="642.80798" x2="1129.9069" y2="668.73053">
				<stop offset="0" stop-color="#1C2A35"/>
				<stop offset="1" stop-color="#2E465A"/>
			</linearGradient>
		</defs>
		<path fill="url(#gradient_3)" d="M1128.07 633.465C1135.43 635.533 1149.75 637.269 1154.34 643.438C1154.58 645.327 1154.73 646.891 1154.65 648.807C1150.65 653.119 1148.39 663.222 1148.52 669.045C1148.55 670.343 1148.65 671.633 1148.75 672.926C1148.65 673.267 1148.56 673.614 1148.45 673.95C1147.67 676.161 1147.49 677.522 1145.24 678.566C1141.19 676.553 1138.69 670.608 1135.3 667.292C1135.06 667.065 1134.82 666.842 1134.59 666.617C1129.16 659.846 1126.25 652.346 1119.77 646.112C1122.48 641.887 1125.08 637.501 1128.07 633.465Z"/>
	</g>
	<g>
		<path fill="#050D20" d="M685.912 1142.01C687.975 1142.65 690 1143.25 692.003 1144.06C698.347 1146.82 705.11 1146.91 711.442 1149.87C711.8 1151.59 712.004 1150.91 711.356 1152C704.324 1152.83 697.23 1153.21 690.167 1153.7C687.295 1150.67 684.549 1147.79 681.162 1145.3L680.066 1143.91L680.479 1142.85C682.153 1142.94 683.598 1143.2 685.169 1142.47C685.432 1142.34 685.664 1142.16 685.912 1142.01Z"/>
	</g>
</svg>
